<svg id="Layer_1" data-name="Layer 1" xmlns="http://www.w3.org/2000/svg" viewBox="0 0 283.56 99.99"><defs><style>.cls-1{fill:#fff;}.cls-2{opacity:0.42;}.cls-3{opacity:0.3;}.cls-4{fill:none;stroke:#fff;stroke-miterlimit:10;stroke-width:0.25px;}</style></defs><title>ee_logo</title><path class="cls-1" d="M275.1,238.43v4.94a0.51,0.51,0,0,0,.53.49h10.85a0.51,0.51,0,0,1,.53.49V247a0.51,0.51,0,0,1-.53.49H275.63a0.51,0.51,0,0,0-.53.49v5.84a0.51,0.51,0,0,0,.53.49h12.31a0.51,0.51,0,0,1,.53.49v2.8a0.51,0.51,0,0,1-.53.49H270.56a0.51,0.51,0,0,1-.53-0.49V234.66a0.51,0.51,0,0,1,.53-0.49h17.38a0.51,0.51,0,0,1,.53.49v2.8a0.51,0.51,0,0,1-.53.49H275.63A0.51,0.51,0,0,0,275.1,238.43Z" transform="translate(-146.72 -211.27)"/><path class="cls-1" d="M315.07,254.8v2.8a0.51,0.51,0,0,1-.53.49H298.62a0.51,0.51,0,0,1-.53-0.49V234.66a0.51,0.51,0,0,1,.53-0.49h4a0.51,0.51,0,0,1,.53.49v19.17a0.51,0.51,0,0,0,.53.49h10.85A0.51,0.51,0,0,1,315.07,254.8Z" transform="translate(-146.72 -211.27)"/><path class="cls-1" d="M328.81,238.43v4.94a0.51,0.51,0,0,0,.53.49h10.85a0.51,0.51,0,0,1,.53.49V247a0.51,0.51,0,0,1-.53.49H329.34a0.51,0.51,0,0,0-.53.49v5.84a0.51,0.51,0,0,0,.53.49h12.31a0.51,0.51,0,0,1,.53.49v2.8a0.51,0.51,0,0,1-.53.49H324.27a0.51,0.51,0,0,1-.53-0.49V234.66a0.51,0.51,0,0,1,.53-0.49h17.38a0.51,0.51,0,0,1,.53.49v2.8a0.51,0.51,0,0,1-.53.49H329.34A0.51,0.51,0,0,0,328.81,238.43Z" transform="translate(-146.72 -211.27)"/><path class="cls-1" d="M361,251.37l6.54-17a0.53,0.53,0,0,1,.53-0.32l4,0.23a0.49,0.49,0,0,1,.46.66l-9.74,22.89a0.53,0.53,0,0,1-.49.31h-2.79a0.53,0.53,0,0,1-.49-0.31l-9.74-22.89a0.49,0.49,0,0,1,.46-0.66l4-.23a0.53,0.53,0,0,1,.53.33l6.5,17H361Z" transform="translate(-146.72 -211.27)"/><path class="cls-1" d="M380.69,258.27l-4.07-.15a0.49,0.49,0,0,1-.46-0.68l10.91-23a0.53,0.53,0,0,1,.48-0.29h2.37a0.53,0.53,0,0,1,.48.29l10.91,23a0.49,0.49,0,0,1-.46.68l-4,.15a0.53,0.53,0,0,1-.51-0.3l-1.87-4a0.54,0.54,0,0,0-.49-0.3H383.53a0.53,0.53,0,0,0-.49.3l-1.84,4A0.53,0.53,0,0,1,380.69,258.27ZM392.08,250a0.49,0.49,0,0,0,.49-0.67l-3.77-8.57h-0.14l-3.77,8.57a0.49,0.49,0,0,0,.49.67h6.69Z" transform="translate(-146.72 -211.27)"/><path class="cls-1" d="M420.86,234.17c4.55,0,8.3,2.69,8.3,7.45,0,3.17-2.16,5.36-5,6.52a0.47,0.47,0,0,0-.23.72l6.28,8.5a0.48,0.48,0,0,1-.42.76l-4.4.15a0.55,0.55,0,0,1-.47-0.22l-6.24-9a0.56,0.56,0,0,0-.45-0.23h-3.38a0.51,0.51,0,0,0-.53.49v8.33a0.51,0.51,0,0,1-.53.49h-4a0.51,0.51,0,0,1-.53-0.49V234.66a0.51,0.51,0,0,1,.53-0.49h11.1Zm-6.56,4.26v6.22a0.51,0.51,0,0,0,.53.49h5.37a3.89,3.89,0,0,0,3.89-3.52,3.66,3.66,0,0,0-4-3.68h-5.31A0.51,0.51,0,0,0,414.3,238.43Z" transform="translate(-146.72 -211.27)"/><path class="cls-1" d="M275.18,275.07v4a0.41,0.41,0,0,0,.42.39h8.69a0.41,0.41,0,0,1,.43.39v2.14a0.41,0.41,0,0,1-.43.39h-9.11v5.45h10.28a0.41,0.41,0,0,1,.42.39v2.24a0.41,0.41,0,0,1-.42.39H271.54a0.41,0.41,0,0,1-.42-0.39V272.05a0.41,0.41,0,0,1,.42-0.39h13.92a0.41,0.41,0,0,1,.42.39v2.24a0.41,0.41,0,0,1-.42.39H275.6A0.41,0.41,0,0,0,275.18,275.07Z" transform="translate(-146.72 -211.27)"/><path class="cls-1" d="M302.84,271.51c6.59,0,10.21,4.17,10.21,9.73,0,4.84-2.47,8-6.95,9.14l0,0.1c1.54,0.65,4,1.71,6.07,2.6a0.37,0.37,0,0,1,.2.52l-1.11,2.15a0.45,0.45,0,0,1-.58.18c-4.67-2.15-8.21-3.55-12.81-6a9.2,9.2,0,0,1-5.23-8.7C292.61,275.68,296.22,271.51,302.84,271.51Zm-0.92,16.56c5.39,0,7-3.28,7-6.83,0-3.35-2-6.53-6.12-6.53s-6.14,3-6.14,6.53C296.7,284.92,298.7,287,301.92,288.07Z" transform="translate(-146.72 -211.27)"/><path class="cls-1" d="M337.7,271.66a0.41,0.41,0,0,1,.42.39v10.51c0,4.86-3,8.42-8.79,8.42s-8.79-3.56-8.79-8.42V272.05a0.41,0.41,0,0,1,.42-0.39h3.21a0.41,0.41,0,0,1,.43.39v10.51c0,3.07,1.67,5.4,4.73,5.4s4.73-2.33,4.73-5.4V272.05a0.41,0.41,0,0,1,.42-0.39h3.22Z" transform="translate(-146.72 -211.27)"/><path class="cls-1" d="M346.35,290.42V272.05a0.41,0.41,0,0,1,.42-0.39H350a0.41,0.41,0,0,1,.43.39v18.36a0.41,0.41,0,0,1-.43.39h-3.21A0.41,0.41,0,0,1,346.35,290.42Z" transform="translate(-146.72 -211.27)"/><path class="cls-1" d="M373.2,274.68h-5.8v15.73a0.41,0.41,0,0,1-.42.39h-3.21a0.41,0.41,0,0,1-.42-0.39V274.68h-5.8a0.41,0.41,0,0,1-.42-0.39v-2.24a0.41,0.41,0,0,1,.42-0.39H373.2a0.41,0.41,0,0,1,.42.39v2.24A0.41,0.41,0,0,1,373.2,274.68Z" transform="translate(-146.72 -211.27)"/><path class="cls-1" d="M382.69,271.52a0.43,0.43,0,0,1,.4.23l4.33,8.67h0.11l4.33-8.67a0.43,0.43,0,0,1,.4-0.23l3.78,0.12a0.39,0.39,0,0,1,.36.58l-6.83,11.18a0.38,0.38,0,0,0-.06.19v6.83a0.41,0.41,0,0,1-.42.39h-3.21a0.41,0.41,0,0,1-.42-0.39v-6.75a0.38,0.38,0,0,0-.06-0.19l-6.84-11.25a0.39,0.39,0,0,1,.36-0.58Z" transform="translate(-146.72 -211.27)"/><path class="cls-1" d="M197,294.53c0.45,0,.91,0,1.37,0a34.5,34.5,0,0,0,9.74-1.41,37,37,0,0,0,16.14-24h-4A34.39,34.39,0,0,1,197,294.53Z" transform="translate(-146.72 -211.27)"/><path class="cls-1" d="M198.31,230.64a34.18,34.18,0,0,1,10.08,1.53A37.16,37.16,0,0,1,225,262.37v3.1l-31.3,0,0-3.57,27.45,0c-0.34-14.19-10.07-26.74-24-31.24l1.21,0h0Z" transform="translate(-146.72 -211.27)"/><path class="cls-1" d="M151.27,269.2h0a30.85,30.85,0,0,1-.56-3.95h0l0-.48c0-.74-0.07-1.44-0.07-2.13,0-14.6,9.9-27.53,24.25-32.05a41.78,41.78,0,0,1,11.38-5.27h-0.39c-21.56,0-39.11,16.74-39.14,37.33,0,0.54,0,1.09,0,1.66a30.77,30.77,0,0,0,.55,4.89h0c3.34,17.67,19.16,30.46,38,30.68a41.86,41.86,0,0,1-11.13-5.48A34.31,34.31,0,0,1,151.27,269.2Z" transform="translate(-146.72 -211.27)"/><path class="cls-1" d="M214.14,259.56" transform="translate(-146.72 -211.27)"/><path class="cls-1" d="M214.14,259.56" transform="translate(-146.72 -211.27)"/><path class="cls-1" d="M167.67,267" transform="translate(-146.72 -211.27)"/><path class="cls-1" d="M167.67,267" transform="translate(-146.72 -211.27)"/><g class="cls-2"><path class="cls-1" d="M227.07,257" transform="translate(-146.72 -211.27)"/></g><g class="cls-2"><path class="cls-1" d="M227.07,257" transform="translate(-146.72 -211.27)"/></g><path class="cls-1" d="M206.42,284.33" transform="translate(-146.72 -211.27)"/><path class="cls-1" d="M206.42,284.33" transform="translate(-146.72 -211.27)"/><path class="cls-1" d="M204.35,288.8" transform="translate(-146.72 -211.27)"/><path class="cls-1" d="M204.35,288.8" transform="translate(-146.72 -211.27)"/><path class="cls-1" d="M232.37,269.2c-3.21,15.85-17.62,27.3-34.54,27.32a39.7,39.7,0,0,1-4.86-.32c-0.5-.07-1-0.17-1.48-0.25-13.9-2.42-25.11-12.71-28.13-26-0.05-.23-0.1-0.47-0.15-0.71h-4c0.09,0.48.18,1,.29,1.44,3.4,15,16.15,26.53,31.95,29l1.32,0.19a41.43,41.43,0,0,0,5,.3h0c19.12,0,35.22-13,38.5-30.91h-4Z" transform="translate(-146.72 -211.27)"/><path class="cls-1" d="M236.92,261a0.56,0.56,0,0,0,0-.06c0-.13,0-0.25,0-0.38v0c0-.2,0-0.41,0-0.61,0,0,0-.08,0-0.12-0.06-.77-0.15-1.54-0.26-2.3-2.68-18.31-19.33-32.14-38.71-32.16-1.45,0-2.86.07-4.27,0.22-0.37,0-.73.09-1.09,0.14l-0.13,0-0.65.09-0.67.09c-16.43,2.74-29.25,15.15-31.89,30.88-0.12.73-.22,1.44-0.29,2.15l-0.21,3.36v3.13l35.33,0,0-3.56-31.36,0,0.12-2.11c0-.31.06-0.62,0.1-0.93l0.1-.73,0-.16,0.09-.57c2.35-14,13.7-25.19,28.25-27.82l0.43-.07h0l0.56-.09a37.1,37.1,0,0,1,5.55-.43h0c17.44,0,32.43,12.5,34.85,29,0.06,0.42.11,0.84,0.16,1.26h0c0.1,0.92.16,1.85,0.18,2.77a2.41,2.41,0,0,0,0,.25c0,0.57,0,1.13,0,1.69,0,0,0,.1,0,0.15a34.76,34.76,0,0,1-2.71,11.6l4.2-.07a39.54,39.54,0,0,0,2.33-10.3h0l0-.42c0-.75.07-1.48,0.07-2.18S237,261.57,236.92,261Z" transform="translate(-146.72 -211.27)"/><g class="cls-3"><polygon class="cls-4" points="105.22 99.98 104.72 90.98 104.72 0.01 105.22 9.01 105.22 99.98"/></g></svg>