<svg id="Layer_1" data-name="Layer 1" xmlns="http://www.w3.org/2000/svg" viewBox="0 0 255.92 37.6"><defs><style>.cls-1{opacity:0.8;}.cls-2{fill:#1d1d1d;}</style></defs><title>c</title><g class="cls-1"><path class="cls-2" d="M40,63.74h0.69A17.33,17.33,0,0,0,45.53,63,18.59,18.59,0,0,0,53.64,51h-2A17.28,17.28,0,0,1,40,63.74Z" transform="translate(-14.7 -28.97)"/><path class="cls-2" d="M40.61,31.64a17.17,17.17,0,0,1,5.06.77A18.67,18.67,0,0,1,54,47.58v1.56H38.29V47.34H52.08A17.15,17.15,0,0,0,40,31.65h0.58Z" transform="translate(-14.7 -28.97)"/><path class="cls-2" d="M17,51h0a15.5,15.5,0,0,1-.28-2h0V48.79c0-.37,0-0.72,0-1.07a17.08,17.08,0,0,1,12.18-16.1A21,21,0,0,1,34.56,29h-0.2C23.53,29,14.72,37.38,14.7,47.72v0.83A15.46,15.46,0,0,0,15,51h0c1.68,8.88,9.63,15.3,19.09,15.41a21,21,0,0,1-5.59-2.75A17.24,17.24,0,0,1,17,51Z" transform="translate(-14.7 -28.97)"/><path class="cls-2" d="M26.62,44.93" transform="translate(-14.7 -28.97)"/><path class="cls-2" d="M26.62,44.93" transform="translate(-14.7 -28.97)"/><path class="cls-2" d="M25.22,49.91" transform="translate(-14.7 -28.97)"/><path class="cls-2" d="M25.22,49.91" transform="translate(-14.7 -28.97)"/><path class="cls-2" d="M39.87,42.31" transform="translate(-14.7 -28.97)"/><path class="cls-2" d="M39.87,42.31" transform="translate(-14.7 -28.97)"/><path class="cls-2" d="M18.71,70.31" transform="translate(-14.7 -28.97)"/><path class="cls-2" d="M16.59,74.89" transform="translate(-14.7 -28.97)"/><path class="cls-2" d="M16.59,74.89" transform="translate(-14.7 -28.97)"/><path class="cls-2" d="M57.72,51A17.49,17.49,0,0,1,40.37,64.74a20,20,0,0,1-2.44-.16l-0.74-.13A17.44,17.44,0,0,1,23,51.39L23,51H21c0,0.24.09,0.5,0.15,0.72A19.36,19.36,0,0,0,37.16,66.33l0.66,0.1a20.81,20.81,0,0,0,2.51.15h0C49.94,66.57,58,60,59.68,51h-2Z" transform="translate(-14.7 -28.97)"/><path class="cls-2" d="M60,46.89a0.28,0.28,0,0,0,0,0V46.67h0V46.3c0-.39-0.08-0.77-0.13-1.16C58.53,36,50.16,29,40.43,29a20.17,20.17,0,0,0-2.15.11,4,4,0,0,0-.55.07H37.67l-0.33,0-0.34,0A19.22,19.22,0,0,0,21,44.78c-0.06.37-.11,0.72-0.15,1.08l-0.11,1.69v1.57H38.48V47.33H22.73l0.06-1.06a3.69,3.69,0,0,1,.05-0.47l0.05-.37V45.36l0-.29a17.37,17.37,0,0,1,14.19-14l0.22,0h0l0.28,0a18.64,18.64,0,0,1,2.79-.22h0c8.76,0,16.29,6.28,17.51,14.57C58,45.58,58,45.79,58,46h0c0.05,0.46.08,0.93,0.09,1.39a1.21,1.21,0,0,0,0,.13v0.92a17.46,17.46,0,0,1-1.36,5.83l2.11,0A19.86,19.86,0,0,0,60,49.06h0V48.85c0-.38,0-0.74,0-1.1A5.7,5.7,0,0,0,60,46.89Z" transform="translate(-14.7 -28.97)"/></g><g class="cls-1"><path class="cls-2" d="M72.82,48.79A6.19,6.19,0,0,1,73,47.13a6,6,0,0,1,.63-1.49,6.4,6.4,0,0,1,2.24-2.24A6.23,6.23,0,0,1,81.47,43a6.24,6.24,0,0,1,3.31,3.32,6.25,6.25,0,0,1,0,4.85,6.25,6.25,0,0,1-3.31,3.31A6.06,6.06,0,0,1,79,55a6.17,6.17,0,0,1-1.65-.22,6.08,6.08,0,0,1-1.48-.63,6.39,6.39,0,0,1-1.26-1A6.18,6.18,0,0,1,72.82,48.79Zm0.93,0a5.55,5.55,0,0,0,.71,2.73,5.18,5.18,0,0,0,.82,1.09,5.36,5.36,0,0,0,1.07.84,5.28,5.28,0,0,0,1.27.54,5.2,5.2,0,0,0,1.42.19A5.26,5.26,0,0,0,80.47,54a5.4,5.4,0,0,0,1.28-.54,5.27,5.27,0,0,0,1.91-1.92,5.45,5.45,0,0,0,.53-1.29,5.51,5.51,0,0,0,.19-1.44,5.62,5.62,0,0,0-.19-1.45,5.51,5.51,0,0,0-.53-1.3A5.29,5.29,0,0,0,79,43.36a5.2,5.2,0,0,0-1.42.19,5.14,5.14,0,0,0-1.27.54,5.37,5.37,0,0,0-1.07.85,5.2,5.2,0,0,0-.82,1.1A5.61,5.61,0,0,0,73.75,48.79Zm7.41,2a0.23,0.23,0,0,1,.13,0l0.11,0.08L82,51.48a3.27,3.27,0,0,1-1.19.88,4.2,4.2,0,0,1-1.69.31,3.84,3.84,0,0,1-1.53-.29,3.4,3.4,0,0,1-1.17-.82,3.72,3.72,0,0,1-.75-1.24,4.41,4.41,0,0,1-.27-1.56,4.13,4.13,0,0,1,.29-1.58A3.66,3.66,0,0,1,76.47,46a3.72,3.72,0,0,1,1.23-.8,4.06,4.06,0,0,1,1.54-.29A3.62,3.62,0,0,1,82,45.93l-0.43.61-0.11.11a0.29,0.29,0,0,1-.18.06A0.45,0.45,0,0,1,81,46.61l-0.33-.2a2.8,2.8,0,0,0-.51-0.2,3.14,3.14,0,0,0-1.83.09,2.2,2.2,0,0,0-.78.53,2.32,2.32,0,0,0-.49.83,3.34,3.34,0,0,0-.17,1.1A3.38,3.38,0,0,0,77,49.89a2.4,2.4,0,0,0,.48.83,2,2,0,0,0,.74.51,2.42,2.42,0,0,0,.93.17,3.19,3.19,0,0,0,.72-0.07,2.8,2.8,0,0,0,.51-0.17A3.11,3.11,0,0,0,80.79,51,2.5,2.5,0,0,1,81.16,50.78Z" transform="translate(-14.7 -28.97)"/><path class="cls-2" d="M98.78,53.32a0.54,0.54,0,0,1,.58.57v1H91.17V54.32A1.07,1.07,0,0,1,91.24,54a0.88,0.88,0,0,1,.23-0.34l3.86-3.87q0.48-.48.88-0.93a6.71,6.71,0,0,0,.66-0.9A4.19,4.19,0,0,0,97.28,47a3.25,3.25,0,0,0,.15-1,2.32,2.32,0,0,0-.16-0.9,1.77,1.77,0,0,0-.44-0.64,1.83,1.83,0,0,0-.66-0.38A2.59,2.59,0,0,0,95.34,44a2.47,2.47,0,0,0-.81.13,2.21,2.21,0,0,0-.66.36,2.13,2.13,0,0,0-.48.54,2.24,2.24,0,0,0-.28.68,0.81,0.81,0,0,1-.3.43,0.78,0.78,0,0,1-.53.05L91.41,46a4.41,4.41,0,0,1,.47-1.5A3.55,3.55,0,0,1,94,42.77a4.77,4.77,0,0,1,1.47-.22,4.5,4.5,0,0,1,1.47.23,3.4,3.4,0,0,1,1.17.68,3.14,3.14,0,0,1,.77,1.08A3.51,3.51,0,0,1,99.13,46a3.84,3.84,0,0,1-.2,1.26,5,5,0,0,1-.54,1.11,7.92,7.92,0,0,1-.8,1q-0.45.5-1,1l-3.09,3.16c0.24-.06.48-0.11,0.72-0.15a4.17,4.17,0,0,1,.68-0.06h3.85Z" transform="translate(-14.7 -28.97)"/><path class="cls-2" d="M109.63,48.79a9.89,9.89,0,0,1-.34,2.77,5.78,5.78,0,0,1-.94,1.94,3.8,3.8,0,0,1-1.41,1.14,4.27,4.27,0,0,1-3.49,0A3.78,3.78,0,0,1,102,53.5a5.77,5.77,0,0,1-.93-1.94,11.48,11.48,0,0,1,0-5.55,5.78,5.78,0,0,1,.93-1.95,3.76,3.76,0,0,1,1.41-1.14,4.27,4.27,0,0,1,3.49,0,3.79,3.79,0,0,1,1.41,1.14,5.78,5.78,0,0,1,.94,1.95A9.94,9.94,0,0,1,109.63,48.79Zm-1.72,0a9.92,9.92,0,0,0-.23-2.3,4.68,4.68,0,0,0-.6-1.49,2.23,2.23,0,0,0-.87-0.8,2.34,2.34,0,0,0-2.06,0,2.23,2.23,0,0,0-.87.8,4.59,4.59,0,0,0-.6,1.49,12.08,12.08,0,0,0,0,4.61,4.54,4.54,0,0,0,.6,1.49,2.26,2.26,0,0,0,.87.8,2.35,2.35,0,0,0,2.06,0,2.26,2.26,0,0,0,.87-0.8,4.63,4.63,0,0,0,.6-1.49A9.92,9.92,0,0,0,107.91,48.79Z" transform="translate(-14.7 -28.97)"/><path class="cls-2" d="M118.81,53.62v1.27h-6.6V53.62h2.58v-8q0-.38,0-0.79l-2.07,1.76a0.6,0.6,0,0,1-.24.12,0.61,0.61,0,0,1-.23,0,0.44,0.44,0,0,1-.19-0.07,0.62,0.62,0,0,1-.13-0.11l-0.52-.72,3.66-3.15h1.35v11h2.35Z" transform="translate(-14.7 -28.97)"/><path class="cls-2" d="M124.11,47.22l-0.28.36-0.27.34a3.43,3.43,0,0,1,.91-0.41,3.83,3.83,0,0,1,1.08-.14,4,4,0,0,1,1.38.24,3.4,3.4,0,0,1,1.15.7,3.26,3.26,0,0,1,.79,1.14,4,4,0,0,1,.29,1.56,4.08,4.08,0,0,1-.31,1.58,3.77,3.77,0,0,1-.86,1.27,4.05,4.05,0,0,1-1.33.85,4.93,4.93,0,0,1-3.4,0,3.6,3.6,0,0,1-1.28-.85,3.76,3.76,0,0,1-.82-1.33,4.92,4.92,0,0,1-.29-1.73,4.74,4.74,0,0,1,.35-1.72,8.42,8.42,0,0,1,1.12-1.93l3.05-4.09a1,1,0,0,1,.36-0.28,1.15,1.15,0,0,1,.53-0.12h1.48Zm0.78,6.42a2.84,2.84,0,0,0,1.06-.19,2.47,2.47,0,0,0,.82-0.52,2.3,2.3,0,0,0,.53-0.79,2.6,2.6,0,0,0,.19-1,2.83,2.83,0,0,0-.18-1,2.23,2.23,0,0,0-.51-0.79,2.18,2.18,0,0,0-.79-0.49,2.92,2.92,0,0,0-1-.17,2.67,2.67,0,0,0-1.05.2,2.48,2.48,0,0,0-.8.54,2.34,2.34,0,0,0-.51.79,2.53,2.53,0,0,0-.18.94,3.11,3.11,0,0,0,.16,1,2.17,2.17,0,0,0,.48.8,2.2,2.2,0,0,0,.77.52A2.71,2.71,0,0,0,124.89,53.64Z" transform="translate(-14.7 -28.97)"/><path class="cls-2" d="M143.21,53.42v1.47h-7.56V42.68h7.56v1.47h-5.75V48h4.62v1.42h-4.62v4h5.75Z" transform="translate(-14.7 -28.97)"/><path class="cls-2" d="M146.74,42.34V54.89h-1.67V42.34h1.67Z" transform="translate(-14.7 -28.97)"/><path class="cls-2" d="M156.19,53.66a3.26,3.26,0,0,1-.71.62,4.1,4.1,0,0,1-.85.42,5.27,5.27,0,0,1-.93.24,6.05,6.05,0,0,1-.95.08,4.44,4.44,0,0,1-1.65-.3,3.68,3.68,0,0,1-1.32-.88,4,4,0,0,1-.87-1.45,5.84,5.84,0,0,1-.31-2,4.9,4.9,0,0,1,.28-1.68,4.05,4.05,0,0,1,.8-1.36,3.71,3.71,0,0,1,1.28-.91,4.2,4.2,0,0,1,1.7-.33,4,4,0,0,1,1.46.26,3.24,3.24,0,0,1,1.15.75,3.48,3.48,0,0,1,.76,1.22,4.58,4.58,0,0,1,.28,1.65,1.05,1.05,0,0,1-.08.51,0.35,0.35,0,0,1-.31.13h-5.66a4.71,4.71,0,0,0,.22,1.35,2.73,2.73,0,0,0,.54,1,2.15,2.15,0,0,0,.82.57,2.88,2.88,0,0,0,1.06.19,3.19,3.19,0,0,0,1-.13,4.57,4.57,0,0,0,.7-0.28c0.2-.1.36-0.19,0.49-0.28a0.68,0.68,0,0,1,.35-0.13,0.37,0.37,0,0,1,.31.15Zm-1.37-4a2.86,2.86,0,0,0-.14-0.91,2.07,2.07,0,0,0-.41-0.72,1.87,1.87,0,0,0-.66-0.48,2.25,2.25,0,0,0-.9-0.17,2.21,2.21,0,0,0-1.64.6,2.92,2.92,0,0,0-.76,1.67h4.52Z" transform="translate(-14.7 -28.97)"/><path class="cls-2" d="M165.4,46.25l-3.5,8.64h-1.5l-3.5-8.64h1.37a0.54,0.54,0,0,1,.32.09,0.45,0.45,0,0,1,.17.24l2.07,5.3q0.11,0.33.19,0.66c0.05,0.22.1,0.43,0.15,0.65,0-.22.1-0.43,0.15-0.65s0.13-.44.2-0.66l2.09-5.3a0.49,0.49,0,0,1,.18-0.24,0.51,0.51,0,0,1,.31-0.09h1.3Z" transform="translate(-14.7 -28.97)"/><path class="cls-2" d="M166.31,47.46a4.75,4.75,0,0,1,3.43-1.37,3.32,3.32,0,0,1,1.31.24,2.7,2.7,0,0,1,1,.68,2.88,2.88,0,0,1,.59,1,4.24,4.24,0,0,1,.2,1.33v5.51h-0.74a0.7,0.7,0,0,1-.37-0.08,0.55,0.55,0,0,1-.2-0.3l-0.18-.76a6.93,6.93,0,0,1-.65.54,4.12,4.12,0,0,1-.68.4,3.4,3.4,0,0,1-.75.25,4.26,4.26,0,0,1-.88.08,3.2,3.2,0,0,1-1-.14,2.16,2.16,0,0,1-.78-0.43,2,2,0,0,1-.52-0.72,2.48,2.48,0,0,1-.19-1,1.91,1.91,0,0,1,.28-1,2.49,2.49,0,0,1,.9-0.85,5.83,5.83,0,0,1,1.63-.61,12.21,12.21,0,0,1,2.48-.27V49.38a2.19,2.19,0,0,0-.42-1.46,1.52,1.52,0,0,0-1.22-.48,2.67,2.67,0,0,0-.91.14,3.57,3.57,0,0,0-.64.3l-0.47.3a0.72,0.72,0,0,1-.41.14,0.47,0.47,0,0,1-.29-0.09,0.76,0.76,0,0,1-.2-0.22Zm4.86,3.59a12.6,12.6,0,0,0-1.72.16,4.67,4.67,0,0,0-1.15.33,1.56,1.56,0,0,0-.64.48,1,1,0,0,0-.2.62,1.35,1.35,0,0,0,.11.56,1,1,0,0,0,.29.38,1.15,1.15,0,0,0,.43.22,2,2,0,0,0,.54.07,3,3,0,0,0,.7-0.08,2.82,2.82,0,0,0,.6-0.22,3.06,3.06,0,0,0,.54-0.34,4.81,4.81,0,0,0,.5-0.47v-1.7Z" transform="translate(-14.7 -28.97)"/><path class="cls-2" d="M176.59,47.91a4,4,0,0,1,1-1.33,2.28,2.28,0,0,1,1.94-.42,1.36,1.36,0,0,1,.44.19l-0.11,1.25a0.27,0.27,0,0,1-.28.23,2,2,0,0,1-.36,0,2.63,2.63,0,0,0-.51,0,2,2,0,0,0-.71.12,1.65,1.65,0,0,0-.55.34,2.3,2.3,0,0,0-.43.55,5.45,5.45,0,0,0-.35.74v5.41H175V46.25h1a0.53,0.53,0,0,1,.37.1,0.65,0.65,0,0,1,.14.34Z" transform="translate(-14.7 -28.97)"/><path class="cls-2" d="M193.11,53.42v1.47h-7.56V42.68h7.56v1.47h-5.75V48H192v1.42h-4.62v4h5.75Z" transform="translate(-14.7 -28.97)"/><path class="cls-2" d="M201.89,46.25V57.79h-1.67V53.66a4.4,4.4,0,0,1-1.22,1,3.23,3.23,0,0,1-1.57.37,3,3,0,0,1-1.34-.29,2.82,2.82,0,0,1-1-.85,4,4,0,0,1-.65-1.38,7.07,7.07,0,0,1-.23-1.9,6,6,0,0,1,.25-1.78,4.26,4.26,0,0,1,.74-1.43,3.49,3.49,0,0,1,1.17-.95,3.43,3.43,0,0,1,1.56-.34,3.52,3.52,0,0,1,.76.08,2.86,2.86,0,0,1,.65.22,2.84,2.84,0,0,1,.55.35,3.49,3.49,0,0,1,.47.47l0.11-.62a0.4,0.4,0,0,1,.43-0.33h1Zm-1.67,2.09a2.25,2.25,0,0,0-.87-0.74,2.55,2.55,0,0,0-1.07-.22,2.09,2.09,0,0,0-1.76.82,3.9,3.9,0,0,0-.62,2.39A6.07,6.07,0,0,0,196,52a2.68,2.68,0,0,0,.41,1,1.62,1.62,0,0,0,.66.54,2.15,2.15,0,0,0,.88.17,2.35,2.35,0,0,0,1.25-.32,3.78,3.78,0,0,0,1-.91v-4.1Z" transform="translate(-14.7 -28.97)"/><path class="cls-2" d="M211.38,46.25v8.64h-1a0.43,0.43,0,0,1-.44-0.33l-0.12-.87a5.76,5.76,0,0,1-.59.54,3.64,3.64,0,0,1-.65.42,3.56,3.56,0,0,1-.74.27,3.45,3.45,0,0,1-.84.1,3.09,3.09,0,0,1-1.25-.24,2.49,2.49,0,0,1-.91-0.67,2.89,2.89,0,0,1-.55-1,4.49,4.49,0,0,1-.19-1.33v-5.5h1.67v5.5a2.2,2.2,0,0,0,.42,1.44,1.59,1.59,0,0,0,1.3.51,2.44,2.44,0,0,0,1.19-.3,4.08,4.08,0,0,0,1-.83V46.25h1.66Z" transform="translate(-14.7 -28.97)"/><path class="cls-2" d="M215.75,43.59a1.06,1.06,0,0,1-.09.44,1.22,1.22,0,0,1-.25.37,1.14,1.14,0,0,1-.37.25,1.13,1.13,0,0,1-.44.09,1.07,1.07,0,0,1-.43-0.09,1.16,1.16,0,0,1-.36-0.25,1.14,1.14,0,0,1-.25-0.37,1.1,1.1,0,0,1-.09-0.44,1.12,1.12,0,0,1,.09-0.45,1.17,1.17,0,0,1,.61-0.61,1.07,1.07,0,0,1,.43-0.09,1.13,1.13,0,0,1,.44.09,1.16,1.16,0,0,1,.37.25,1.24,1.24,0,0,1,.25.37A1.07,1.07,0,0,1,215.75,43.59Zm-0.31,2.67v8.64h-1.66V46.25h1.66Z" transform="translate(-14.7 -28.97)"/><path class="cls-2" d="M220.54,55a2.13,2.13,0,0,1-1.61-.59,2.32,2.32,0,0,1-.57-1.67V47.6h-1a0.32,0.32,0,0,1-.34-0.36V46.57l1.4-.2,0.37-2.58a0.4,0.4,0,0,1,.13-0.22,0.38,0.38,0,0,1,.25-0.08H220v2.9h2.45V47.6H220v5.06a1,1,0,0,0,.25.76,0.87,0.87,0,0,0,.64.25,1.19,1.19,0,0,0,.4-0.06,1.66,1.66,0,0,0,.29-0.13l0.2-.13a0.27,0.27,0,0,1,.15-0.06,0.2,0.2,0,0,1,.13,0,0.48,0.48,0,0,1,.1.12l0.49,0.8a2.85,2.85,0,0,1-1,.58A3.37,3.37,0,0,1,220.54,55Z" transform="translate(-14.7 -28.97)"/><path class="cls-2" d="M231.54,46.25L226.75,57.4a0.71,0.71,0,0,1-.2.29,0.59,0.59,0,0,1-.37.1h-1.23l1.58-3.44L223,46.25h1.45a0.5,0.5,0,0,1,.33.1,0.6,0.6,0,0,1,.17.23l2.19,5.19,0.13,0.39c0,0.13.08,0.27,0.11,0.4,0-.14.08-0.27,0.13-0.4s0.09-.27.14-0.4l2.12-5.18a0.56,0.56,0,0,1,.19-0.24,0.48,0.48,0,0,1,.29-0.09h1.33Z" transform="translate(-14.7 -28.97)"/><path class="cls-2" d="M232.92,54.89a1,1,0,0,1-.75-0.32,1,1,0,0,1-.22-0.35,1.25,1.25,0,0,1-.08-0.44,1,1,0,0,1,.08-0.39,1,1,0,0,1,.22-0.32,1.08,1.08,0,0,1,.34-0.22,1.22,1.22,0,0,1,.91,0,1,1,0,0,1,.35.27,1.17,1.17,0,0,1,.21.4A1.74,1.74,0,0,1,234,54a3.18,3.18,0,0,1-.11.81,4.1,4.1,0,0,1-.32.84,4.74,4.74,0,0,1-.53.81,5.09,5.09,0,0,1-.71.72L232.09,57a0.35,0.35,0,0,1-.13-0.26,0.24,0.24,0,0,1,0-.12,0.62,0.62,0,0,1,.1-0.12l0.22-.25a3.08,3.08,0,0,0,.27-0.35,3.68,3.68,0,0,0,.25-0.44,2.13,2.13,0,0,0,.17-0.51h-0.08Z" transform="translate(-14.7 -28.97)"/><path class="cls-2" d="M247.68,53.37v1.52h-7V42.68h1.81V53.37h5.18Z" transform="translate(-14.7 -28.97)"/><path class="cls-2" d="M256.44,53.37v1.52h-7V42.68h1.81V53.37h5.18Z" transform="translate(-14.7 -28.97)"/><path class="cls-2" d="M266.2,52.27a0.35,0.35,0,0,1,.26.12l0.71,0.78a5.11,5.11,0,0,1-1.82,1.37,6.27,6.27,0,0,1-2.59.48,6,6,0,0,1-2.4-.46,5.29,5.29,0,0,1-1.84-1.28,5.78,5.78,0,0,1-1.18-2,7.34,7.34,0,0,1-.42-2.52,7,7,0,0,1,.44-2.53,5.8,5.8,0,0,1,1.23-2A5.53,5.53,0,0,1,260.49,43a6.26,6.26,0,0,1,2.44-.46,5.92,5.92,0,0,1,2.31.42A5.82,5.82,0,0,1,267,44.1l-0.59.84a0.52,0.52,0,0,1-.15.15,0.41,0.41,0,0,1-.23.06,0.67,0.67,0,0,1-.38-0.16,5.38,5.38,0,0,0-.57-0.36,4.2,4.2,0,0,0-2.16-.52,4.24,4.24,0,0,0-1.67.32,3.68,3.68,0,0,0-1.3.92,4.17,4.17,0,0,0-.85,1.47,6,6,0,0,0-.3,2,5.78,5.78,0,0,0,.31,2,4.32,4.32,0,0,0,.87,1.47,3.67,3.67,0,0,0,1.3.92,4.12,4.12,0,0,0,1.62.31,6.32,6.32,0,0,0,.95-0.06,4,4,0,0,0,.77-0.19,3.38,3.38,0,0,0,.67-0.33,4.39,4.39,0,0,0,.62-0.48l0.14-.1A0.36,0.36,0,0,1,266.2,52.27Z" transform="translate(-14.7 -28.97)"/><path class="cls-2" d="M268.39,53.9a1.11,1.11,0,0,1,.08-0.43,1.14,1.14,0,0,1,.23-0.36,1.11,1.11,0,0,1,.35-0.24,1.09,1.09,0,0,1,.44-0.09,1.07,1.07,0,0,1,.43.09,1.17,1.17,0,0,1,.36.24,1.16,1.16,0,0,1,.24.36,1.07,1.07,0,0,1,.09.43,1.09,1.09,0,0,1-.09.44,1.16,1.16,0,0,1-.24.36,1.11,1.11,0,0,1-.36.24,1.13,1.13,0,0,1-.43.08,1.15,1.15,0,0,1-.44-0.08,1.06,1.06,0,0,1-.35-0.24A1.14,1.14,0,0,1,268.39,53.9Z" transform="translate(-14.7 -28.97)"/></g></svg>