<svg id="Layer_1" data-name="Layer 1" xmlns="http://www.w3.org/2000/svg" viewBox="0 0 380.51 495.28"><defs><style>.cls-1{fill:#fff;}</style></defs><title>hcvc</title><g id="_6Jm9lm" data-name="6Jm9lm"><path class="cls-1" d="M186.28,262.34c1.4-3.88,3.13-6.95,3.57-10.19,1.9-14.16,3.42-28.37,5.09-42.56,0.27-2.31.25-4.75,1-6.88,0.58-1.59,2.22-2.8,3.39-4.18,1.72,1.53,4.89,3,4.94,4.6,0.44,13.44.09,26.91,0.49,40.35,0.15,5,1.45,10.07,2.74,15,0.31,1.16,2.64,2.34,4.15,2.51,2.65,0.3,5.91.59,5.28,3.6a9.21,9.21,0,0,1-16,3.26c-1.51-1.75-2.92-3.59-4.91-6.06-5.11,8-11.75,8.14-18.6,5.79-2.15-.74-4.86-3-5.29-5a161.42,161.42,0,0,1-3-21.58c-0.48-6.27-.1-12.6-0.1-18.54l-20.08,2.06c0,8.25,0,17,0,25.74,0,5.65.34,11.31,0,16.94-0.09,1.53-2,3-3.08,4.44-1.65-1.41-4.4-2.6-4.74-4.27a116.3,116.3,0,0,1-2-17.28c-0.32-6.32-.23-12.67,0-19,0.1-3.3-1.11-4.26-4.33-4.3-4.93-.06-9.86-0.71-15.62-1.18,0.56,7.31,1.26,14.86,1.68,22.43a171.11,171.11,0,0,1,.34,19.43c-0.11,1.85-2.91,5.05-4.28,5-2.12-.15-5.16-2.22-5.86-4.18a49.59,49.59,0,0,1-2.82-14c-0.67-12.45-1-24.92-1.12-37.39-0.12-12,0-23.94.47-35.89,0.09-2.26,2.21-4.7,4-6.47,0.61-.61,4,0.09,4.37.94a32.35,32.35,0,0,1,2.89,10.37c0.49,8.48.45,17,.41,25.48,0,3,1,4.1,4,4.08,4.28,0,8.55.4,13.93,0.7,0.91-6.73,2-13.55,2.68-20.41,0.41-4.3-.09-8.68.31-13,0.14-1.44,1.79-3.81,2.81-3.84a6.68,6.68,0,0,1,4.67,2.55c0.88,1.13.79,3.16,0.79,4.79,0,9.16.1,18.33-.17,27.49-0.1,3.45,1.46,4.77,4.44,5.4,6.29,1.32,14-3.49,16.53-9.62,1.07-2.56,3.61-4.61,5.81-6.52,0.62-.54,3-0.2,3.49.51,1,1.34,2,3.44,1.58,4.85C176.54,221,177.34,234,177.39,247,177.41,253.27,180.31,257.93,186.28,262.34Z" transform="translate(-106.91 -174.22)"/><path class="cls-1" d="M440.79,347.75c-0.28-4.52-.7-8.43-0.73-12.34-0.09-11.82,0-23.65,0-35.47,0-1.33.08-2.67-.05-4-0.91-9.16,6-15.07,14.73-11.83,17.14,6.33,28.21,18.3,31.68,36.63,0.37,2,.68,3.93.87,5.91,1.25,13.26-4.12,23-16,28.93-4.73,2.38-9.7,4.31-14.61,6.33-3.16,1.3-6.82,1.68-7.92,5.92-0.21.79-2.69,1.89-3.11,1.56a6.51,6.51,0,0,1-2.49-3.83c-0.57-5-.72-10.15-2.2-15.43-2.19,3.43-4.27,6.92-6.58,10.26-6.83,9.9-18.69,9.13-27.07.79-7.19-7.15-12.56-14.65-15.83-24-0.29-.82-2.24-1-3.28-1.65s-2.13-1.38-2.27-2.24a3.07,3.07,0,0,1,1.59-2.57c3.75-.94,3.42-3.69,3.68-6.61,0.74-8.25,1.63-16.5,2.86-24.69,0.68-4.51,2.63-8.15,8.34-8.12,2.16,0,4.29-1.79,6.51-2,10.81-1.13,17.44,6.84,15.17,18.25a39.47,39.47,0,0,1-15.24,24.42c-2.49,1.88-3.13,3.6-2,6.25,1.81,4.11,3.57,8.24,5.5,12.29,2.74,5.76,11.73,7.21,14.71,1.63C430.49,345.69,434.65,345.33,440.79,347.75Zm10.11,5.11c3.57-1.8,5.94-3.72,8.58-4.19,9.4-1.7,12.59-8.7,14.17-16.58,1-4.89,2-10.72.21-15-4-9.91-13.22-14.24-23-17.66v53.47Zm-43-54-3.4,23C414.29,315.09,415.94,303.94,407.89,298.88Z" transform="translate(-106.91 -174.22)"/><path class="cls-1" d="M367.63,553.33c-3.51,4.06-6.6,7.7-9.76,11.27a11.19,11.19,0,0,1-3.27,2.92c-5.6,2.58-17-4.82-17.68-11-2.38-20.36.67-40.38,2.83-60.52,1.24-11.59,11.53-11.26,18.51-7.74,7.64,3.86,13.07,9.87,14.75,17.82,1.58,7.48.37,15.51,1.25,23.2a95,95,0,0,0,4.32,19.42c1.28,3.81,4.52,6.93,6.61,10.51,2.26,3.87,1.3,6.59-2.62,8.57-4.63,2.33-9,1.34-10.47-2.68-1-2.77-1.37-5.78-2.27-8.61C369.47,555.41,368.46,554.5,367.63,553.33Zm-18.54,2.07c9.76-18.52,11.47-42.72,3.92-47.71C350.31,523.61,346.18,539.26,349.09,555.4Z" transform="translate(-106.91 -174.22)"/><path class="cls-1" d="M436,457.67c1.06-2.54,1.72-3.92,2.22-5.37,2-5.64,3.71-11.36,5.87-16.92a14.2,14.2,0,0,1,10.14-8.89c3.38-.85,6.06.11,6.13,4.3,0.24,12.79-3.17,24-13.76,32.19-8.13,6.28-21.14,5.08-27.83-2.78a18.33,18.33,0,0,1-3.08-4.53C407.2,435.45,403.57,415,413,393.91c2.49-5.59,5.92-10.2,12.71-10.46,7.36-.28,13.35,2.28,17.15,9A15.58,15.58,0,0,1,440,410.79a24.17,24.17,0,0,1-6,4.5c-5.79,2.7-7,7.26-6.56,13.09C428.27,438.22,429.52,447.84,436,457.67Zm-4.82-62.84v11.41C436.92,403.77,437.07,399.94,431.21,394.84Z" transform="translate(-106.91 -174.22)"/><path class="cls-1" d="M346,202.26c9.72-11.83,28.31-9.12,33.35,5.07a71.93,71.93,0,0,1,3.52,20c0.68,12.56,2.2,25.26-2.07,37.6-0.32.92-.05,2.05-0.42,2.93-0.8,1.88-1.84,3.66-2.78,5.48-1.84-1.91-4-3.64-5.37-5.82-0.6-.94,0-2.95.58-4.3,5-12.72,3.28-25.9,2.57-39a82.56,82.56,0,0,0-2.54-15.68c-1.35-5.3-4.87-7.24-10.62-6.83s-8.6,2.8-9.78,8.1c-3.3,14.86-2,29.77-.52,44.68,0.69,6.94,1.71,13.85,2.09,20.81a6.39,6.39,0,0,1-2.91,4.89c-4.07,2.1-8.83,3.43-12.25-.83a18.33,18.33,0,0,1-3.62-9c-2.51-22.25-4.85-44.53-6.81-66.84-0.23-2.62,1.82-5.72,3.53-8.07,0.57-.79,4.8-0.33,4.93.18C338.06,200.4,342.33,200.54,346,202.26Z" transform="translate(-106.91 -174.22)"/><path class="cls-1" d="M249.7,224c4.93-9.48,9.49-18.5,14.36-27.34,0.84-1.53,3-2.33,4.59-3.46,0.91,1.75,2.55,3.48,2.62,5.26,0.67,17.29,1,34.59,1.62,51.89,0.19,5.44,1.23,10.86,1.34,16.3,0,1.66-1.76,3.36-2.72,5-1.17-1.41-3-2.67-3.38-4.26a72.58,72.58,0,0,1-1.53-12.31c-0.64-14.3-1.09-28.6-1.63-42.9a12.08,12.08,0,0,0-.94-2.36c-3.12,7.31-5.88,13.78-8.63,20.25a13.5,13.5,0,0,1-1,2.79c-1.5,2-3.2,3.92-4.81,5.86a48.72,48.72,0,0,1-5-4.83c-2.43-3.08-4.56-6.4-6.82-9.62l-1.25.35c0.38,3.94.8,7.87,1.12,11.81,0.61,7.62,1.43,15.24,1.65,22.88s-8.87,13.22-15.56,9.86a5.72,5.72,0,0,1-2.54-4.27c-0.11-21.16,0-42.31.07-63.47a10.77,10.77,0,0,1,.46-3c0.85-2.88.4-6.62,4.63-7.39s6.28,1.95,8,5.22c4.31,8,8.71,16,13.1,24C248,221.52,248.79,222.58,249.7,224Z" transform="translate(-106.91 -174.22)"/><path class="cls-1" d="M388.11,436.72c-4.55,3.17-8.47,5.66-12.06,8.55-1,.84-1.54,2.82-1.59,4.31-0.18,5.49.34,11-.25,16.46-0.26,2.36-2.25,4.82-4.11,6.53-0.54.5-4.57-1.11-4.86-2.28a92.17,92.17,0,0,1-3.07-18c-0.74-18.11-.84-36.24-1.43-54.36-0.16-4.82,2.65-6.74,6.43-7.38,17.33-2.91,29.42,5.61,29.14,22.68-0.07,4.26-.94,8.5-1.39,12.76-0.1.94-.35,2.23,0.13,2.79,6.37,7.42,5.28,16.5,5.68,25.22,0.19,4.22-.52,8.69,6,8.51,0.54,0,1.91,2.58,1.59,3.49-1.2,3.33-7.37,6.52-10.68,5.84-4.73-1-6.35-4.53-6.69-8.77-0.48-6.13-.57-12.29-1.08-18.42C389.64,442.09,388.77,439.62,388.11,436.72Zm-14.67-6c5.54-3.81,9.25-7.56,10.41-12.87s0.46-10.36-4.27-14c-2.84-2.16-6-1.48-6,1.48C373.29,413.44,373.45,421.5,373.45,430.75Z" transform="translate(-106.91 -174.22)"/><path class="cls-1" d="M134.13,502c-4.3,20.32-.66,39.36,8.17,59.4,1.41-4.11,2.84-7.11,3.41-10.27,0.64-3.55,1.53-6,5.85-5.67s7.07,2.31,5.74,6.63c-1.92,6.25-3.91,12.75-7.36,18.2s-15.33,5.54-20.16,0c-4-4.65-7.8-10.3-9.36-16.13-4.8-18-9-36.12-7.77-55.09,0.79-12.55,10-19.55,21.75-15.25,1.88,0.69,3.41,2.51,4.92,4,1.3,1.26,2.17,3,3.53,4.15,3.73,3.2,4.93,8,2,10.9s-6.36,1.9-9.32-.67A3.72,3.72,0,0,0,134.13,502Z" transform="translate(-106.91 -174.22)"/><path class="cls-1" d="M212,333.64q0,13.44,0,26.87c0,4,.19,8-0.12,11.92a4.51,4.51,0,0,1-2.52,3.09c-0.81.32-2.73-.56-3.23-1.43a14,14,0,0,1-2-6c-0.81-19.13-1.66-38.27-1.92-57.41-0.06-4.23,2.05-8.54,3.55-12.68,0.19-.52,2.84-0.58,4.09-0.13,0.77,0.28,1.05,1.94,1.52,3q9.82,22,19.67,43.91a4.36,4.36,0,0,0,1.49.58c0-2.08,0-3.95,0-5.82,0.19-14.83.31-29.65,0.69-44.48,0-1.89,1.44-3.74,2.22-5.6,1.58,1.23,3.62,2.17,4.62,3.76,1.47,2.33,2.93,5.07,3.13,7.73q1.93,26.58,3.2,53.2a20.38,20.38,0,0,1-1.49,8.74c-3.48,8.14-11,9-15.44,1.48-5.59-9.39-10.34-19.28-15.45-29l-1.07-2Z" transform="translate(-106.91 -174.22)"/><path class="cls-1" d="M222.66,398.09c2.6-1.84,4.6-3.32,6.66-4.69,4.49-3,7.62-2.75,11.62.92,5.92,5.44,8.09,12.58,8.36,20.22,0.37,10.64.07,21.3,0.24,31.94,0.08,4.94.72,9.86,0.84,14.8,0,1.51-.34,3.72-1.34,4.38a6.29,6.29,0,0,1-5,.32c-4-1.49-5-4.9-4.94-8.9,0.29-13.3.75-26.61,0.61-39.91-0.05-5.09-1.56-10.17-2.46-15.6-6.21,2.13-8.31,5.79-8.79,10.6q-2.6,25.81-5.17,51.62c-0.17,1.65,0,3.55-.77,4.87-0.95,1.62-2.91,4-4.09,3.83-2-.31-4.64-2-5.4-3.78-1.11-2.63-1-5.85-1.08-8.84-0.67-21.1-1.36-42.21-1.73-63.32,0-2.38,1.85-4.8,2.84-7.2a59.52,59.52,0,0,1,6.58,4.16C220.83,394.49,221.44,396.18,222.66,398.09Z" transform="translate(-106.91 -174.22)"/><path class="cls-1" d="M182,534.86c0.35,5.87,1,11.33.92,16.78a34.89,34.89,0,0,1-1.76,11.9c-0.63,1.64-4.2,2.89-6.44,2.91-1.28,0-3.29-2.61-3.78-4.37-4-14.57-3.8-29.26-.86-44,1.1-5.53,1.66-11.18,2.93-16.67,0.85-3.65,1.9-7.52,3.94-10.57,4.42-6.61,12.06-6.23,15.4,1a187.72,187.72,0,0,1,8.52,23.36c2.21,7.14,3.55,14.54,5.61,21.73a14.12,14.12,0,0,0,3.64,5.85c3.44,3.38,3.2,15.77-.63,18.6-2.92,2.16-6.9,1.5-8.25-2A111.73,111.73,0,0,1,196.92,544c-1.84-8.21-1.7-8.26-10.05-9.16C185.57,534.74,184.25,534.86,182,534.86Zm9.5-7.26,1.3-1.17-6.76-21.29-2.28.12-1.47,17.58Z" transform="translate(-106.91 -174.22)"/><path class="cls-1" d="M310.56,261.13c-1,3.13-1.19,6-2.65,7.9-5.82,7.58-15.5,6.91-20.18-1.76a49.21,49.21,0,0,1-5.49-16.39c-1.38-10.18-1.81-20.5-2.23-30.78-0.46-11.38,4.8-20.89,11.3-29.61,4.46-6,11.15-5.12,15.25,1.16,4.56,7,4.14,15,4.57,22.68,0.56,10.09-1.37,20.44.09,30.33,1,7,5.8,13.42,9.14,20,1.29,2.54,6.16,4.57,2.71,7.66-3.27,2.93-4.89-1.88-6.8-3.67C314.16,266.66,312.68,264,310.56,261.13Zm-11.19-.41,1.92-.41c0.58-1.62,1.61-3.23,1.67-4.87,0.46-12.77.84-25.55,1-38.32,0.1-7-3.08-9.35-11.58-7.58,0,11.91-.67,24.2.32,36.35C293.13,251,297,255.79,299.37,260.73Z" transform="translate(-106.91 -174.22)"/><path class="cls-1" d="M333.34,307.87c-0.7,9-6,18.43-14.94,25.53-3.19,2.53-3.67,4.62-2.13,7.9,1.7,3.61,3.29,7.27,4.94,10.89,1.23,2.7,2.08,5.64,6.18,5.25,4.3-.41,8.12-1.08,10.47-5.41,0.86-1.58,2.85-3.39,4.43-3.51,2.22-.16,4.55,1.17,6.84,1.86a36.7,36.7,0,0,1-1.9,6A54.13,54.13,0,0,1,342.9,363a15.94,15.94,0,0,1-26.2.05c-0.49-.67-0.84-1.64-1.5-2-8.58-4.12-10.45-12.85-14.22-20.31-0.68-1.34-2.38-2.15-3.59-3.24-0.92-.82-2.16-1.55-2.54-2.59-0.2-.54,1-2.18,1.87-2.4,3.53-.92,3.19-3.52,3.44-6.25,0.78-8.41,1.47-16.87,3-25.17,1.2-6.7,10.22-11,19-9.9C329.06,292.17,333.41,297.57,333.34,307.87Zm-19.71,14.68,1.53,0.36c8.29-6.43,9.77-17.44,1.69-21.78Z" transform="translate(-106.91 -174.22)"/><path class="cls-1" d="M135.37,442.84c0.6-3.57,1.06-5.76,1.32-8,1.5-12.7,2.79-25.43,4.6-38.09,0.27-1.89,2.88-3.45,4.4-5.16,1.88,1.85,4.74,3.4,5.41,5.61,0.91,3,.36,6.6.1,9.91-1.55,19.57-3.22,39.14-4.81,58.71-0.4,4.9-2.07,5.39-7.06,5.2-7.66-.3-9.28-5.34-12-11-10-21.29-11.8-44.53-16.81-67-0.25-1.12.45-3.25,1.3-3.64,1.44-.67,4.25-1.08,4.9-0.29,2.65,3.2,5.71,6.61,6.78,10.45,3.76,13.42,6.75,27.06,10.06,40.6C133.7,440.57,134.1,440.94,135.37,442.84Z" transform="translate(-106.91 -174.22)"/><path class="cls-1" d="M127.24,359.36c2.25-6.28,4.46-12.58,6.79-18.84a31.68,31.68,0,0,1,2.2-4.06c1.25,0.88,3,1.51,3.62,2.72,0.9,1.83,1.73,4.26,1.27,6.11-1.91,7.68-3.84,15.43-6.71,22.78-2.18,5.56-5.73,6.41-11.41,4.59-9.94-3.2-15.94-10-16.06-20.37-0.17-15.25.31-30.53,1.24-45.75,0.23-3.79,2.62-8,5.16-11,6.1-7.27,14.11-7.06,19.78.56,3,4.05,4.89,9,6.93,13.7,0.41,0.93-.7,3.61-1.18,3.63a7.49,7.49,0,0,1-4.79-1.27c-2-1.66-3.26-4.2-5.25-5.86-1.34-1.12-4.19-2.38-5-1.77a8.12,8.12,0,0,0-3,5.58c-0.05,10.13,0,20.3.77,30.39,0.5,6.33,2.4,12.55,3.67,18.83Z" transform="translate(-106.91 -174.22)"/><path class="cls-1" d="M218.83,515.23c0.3-5.57.52-10.19,0.8-14.81,0.26-4.36,2.35-7.74,6.28-9.5a82.58,82.58,0,0,1,14.42-5.37c5.26-1.25,9.79.76,12.88,5.51,8.11,12.46,7.71,35.52-12.84,41.17-7.34,2-7.4,2.06-6.94,10,0.24,4.15.85,8.27,1.12,12.41,0.19,3-.29,5.88-4.08,6.22s-5.49-1.9-6.08-5.25c-1.13-6.39-2.61-12.76-3.11-19.2a13.84,13.84,0,0,0-6.12-10.74,74.43,74.43,0,0,1-9.52-8c-1-1-1.22-4.1-.4-5.14s3.53-1.29,5.15-.88C213.16,512.38,215.72,513.87,218.83,515.23Zm29.41-9.68c-0.49-2.76-.67-5.63-1.6-8.23-0.4-1.13-2.61-2.64-3.54-2.37a35.62,35.62,0,0,0-10.37,4.39c-1.05.72-.24,4.12-0.33,6.3,0,0.65-.35,1.29-0.38,1.93-0.16,4.13-.38,8.26-0.38,12.39,0,3.41,1.77,4.23,4.92,3.14C243.65,520.65,247.93,514.15,248.24,505.55Z" transform="translate(-106.91 -174.22)"/><path class="cls-1" d="M331.78,461.54c2-5.45,4.27-10.8,5.78-16.37a54.25,54.25,0,0,0,1.33-11.85c0.46-11,.84-21.94,1-32.91,0.05-3.41,1.35-5.81,4.6-5.8s4.94,2.58,4.78,5.84c-0.71,14.95-1,29.94-2.48,44.82-0.64,6.62-3,13.29-5.71,19.42-3.64,8.19-9.28,9.92-17.64,7.06-6.38-2.19-6.8-7.94-7.34-13-1.22-11.53-1.79-23.13-2.41-34.71-0.44-8.3-.57-16.62-0.76-24.94-0.06-2.77.24-5.56,3.83-5.95,3.78-.41,4.88,2.12,5.15,5.23,0.9,10.42,1.53,20.87,2.69,31.26,1,9.39,2.62,18.73,4.05,28.07a15.71,15.71,0,0,0,1.43,3.48Z" transform="translate(-106.91 -174.22)"/><path class="cls-1" d="M175,424.27c1,8.39,4.91,15.11,9.78,21.26,2.5,3.16,6.37,1.83,9.51-2a11.94,11.94,0,0,1,6.55-4.09c2.79-.48,4.2,1.68,2.93,4.6-3,6.87-8.4,10.64-15.67,11.59s-14,.16-18.61-6.65a28.86,28.86,0,0,0-4.27-5.52c-7.52-6.76-7.27-15.52-6.44-24.38,0.54-5.79,1.57-11.53,2.21-17.31,1.05-9.53,8.22-14.85,17.78-13.06,1.15,0.21,2.29.43,3.43,0.68,10.94,2.44,13.87,7.4,10.13,18.11A25.45,25.45,0,0,1,175,424.27Zm-2.47-10.05c5.59-2.87,7.81-6,7.13-10.42-0.42-2.79-1.86-5.28-6.19-5Z" transform="translate(-106.91 -174.22)"/><path class="cls-1" d="M277.93,402.69c4-.65,7.16-1.37,10.37-1.58,1-.06,2.38,1.09,2.94,2.06,0.29,0.5-.66,2-1.37,2.73a9.13,9.13,0,0,1-3.54,2.67c-5.59,1.63-5.86,4.77-4.74,10.09,1.55,7.4,1.74,15.13,2,22.74,0.3,9.52,8.08,14.55,16.78,10.47,0.75-.35,1.63-1.08,2.26-0.91,1.79,0.48,3.91.94,5.07,2.18,0.71,0.77-.06,3-0.28,4.5a1.82,1.82,0,0,1-.9,1.16c-8.89,4.35-17.06,11.37-28.1,8-7.47-2.26-10.56-6.38-10.8-15.29-0.25-9.81-.12-19.63.1-29.45,0.07-3.32-.33-5.3-4.32-5.63-1.61-.14-3-2.33-4.57-3.58,1.27-1.52,2.33-4.08,3.85-4.38,4.85-1,5.59-3.73,4.81-7.9-0.37-1.95-.18-4-0.4-6-0.35-3.21.41-6,4-6.15s5.88,2,6.27,5.7C277.65,396.94,277.74,399.74,277.93,402.69Z" transform="translate(-106.91 -174.22)"/><path class="cls-1" d="M165.34,329.87c4.35,0.44,8.16.56,11.84,1.32,1.67,0.34,3.08,1.94,4.61,3-1.28,1.8-2.2,4.58-3.91,5.2-3.78,1.38-8,1.67-12.47,2.5-0.13,7.8,1.68,15.77,7.07,22.1,1.9,2.24,6.56,2.84,10,2.88s6.67-1.87,10.08-2.38c1.76-.26,3.69.67,5.54,1.07-0.7,1.85-.88,4.63-2.2,5.37-3.24,1.81-6.94,3.49-10.57,3.77-7.06.55-14.2,0.06-21.31,0.1-4.81,0-6.8-3.25-7.78-7.07a60.65,60.65,0,0,1-2.07-12.76c-0.56-14.61-.79-29.23-1.1-43.85-0.1-4.91,2.34-8.87,6.94-9.59,5.6-.88,11.47-0.51,17.15.09,1.41,0.15,3.6,3.37,3.48,5-0.18,2.53-1.95,5-3.36,7.33-0.2.32-2.2-.58-3.38-0.72-2.33-.28-4.83-1-6.93-0.36-0.94.28-1.42,3.27-1.52,5.07C165.18,321.84,165.34,325.8,165.34,329.87Z" transform="translate(-106.91 -174.22)"/><path class="cls-1" d="M418.34,563.59c0,5.3-2.76,6.25-7.43,5.87-7.59-.6-8.13-5.78-10.05-11.16A156.73,156.73,0,0,1,392,502.57a44.58,44.58,0,0,1,.68-6.92c0.48-2.8.1-7.1,4.13-6.69,3.33,0.33,7.78,2.07,9.33,4.64a33.45,33.45,0,0,1,5,15.22c0.76,17.83,2.62,35.45,7,52.77A10,10,0,0,1,418.34,563.59Z" transform="translate(-106.91 -174.22)"/><path class="cls-1" d="M302.54,488.27l6.72-5,5.43,7.6c2.34,0,6.5-.46,10.49.17,2.4,0.38,6,2.08,6.46,3.85,0.89,3.56-2.74,5-5.69,5.56a74.42,74.42,0,0,1-9.91,1c-2.78.19-3.66,1.62-3.45,4.28,0.79,10.12,1.55,20.25,2.18,30.38,0.61,9.79,1.22,19.59,1.42,29.4a9.86,9.86,0,0,1-2.69,6.31c-2.19,2.29-4.72,1.54-5.55-1.63-1.2-4.58-2.55-9.24-2.83-13.92-1-16.59-1.55-33.2-2.16-49.81-0.1-2.83-1.18-3.85-3.93-3.69a15.57,15.57,0,0,1-5.92-.36c-1.45-.51-3.31-2.06-3.5-3.37-0.26-1.79.29-4.8,1.52-5.52,3.55-2.06,7.62-3.23,11.49-4.75Z" transform="translate(-106.91 -174.22)"/><path class="cls-1" d="M266.06,513.65c0-6.31,0-12.62,0-18.94,0-4.57,2.28-6.23,6.76-5.13,9.45,2.32,9,2.48,9.66,12.4,1.2,18.35,3.12,36.65,4.7,55a27.94,27.94,0,0,1,.17,7c-0.3,1.78-1.24,4-2.61,4.86-0.93.59-3.13-.74-4.73-1.29-0.43-.15-0.79-0.92-1.13-0.89-9.53,1.09-8.18-6.74-8.77-11.71-1.64-13.68-2.4-27.46-3.51-41.2Z" transform="translate(-106.91 -174.22)"/><path class="cls-1" d="M364,306.54c2.06-3.85,3.37-7.55,5.75-10.34a12.63,12.63,0,0,1,7.35-3.9c3.25-.44,5.31,3.75,2.91,5.79-9.21,7.83-7.4,18.2-6.79,28.14,0.57,9.24,2.08,18.42,3,27.64,0.21,2.1-.36,4.28-0.45,6.42-0.12,2.95-.08,6-4.4,5.49-3.85-.41-7.75-0.75-8.61-5.7s-2-9.78-2.48-14.72c-1.32-14.4-6.39-27.73-11.15-41.17-0.95-2.67-2.39-5.44,1.2-7.35,3.41-1.82,6-.71,8.17,2.23C360.2,301.46,362,303.82,364,306.54Z" transform="translate(-106.91 -174.22)"/><path class="cls-1" d="M290.77,293c-2.24.9-4.42,2.41-6.72,2.61-8.59.73-10.43,2.42-10.34,11,0.15,15.15.27,30.3,0.75,45.44,0.06,2,1.71,4.94,3.39,5.64a10.09,10.09,0,0,0,7.66-.21c3-1.55,5.17-4.7,8-6.61,1.3-.86,3.47-0.4,5.25-0.54,0,1.83.82,4.42-.09,5.36-3.67,3.79-7.44,7.83-12,10.35-7.46,4.14-15.48,1.52-18.52-6.74-2.86-7.79-4.13-16.3-5.06-24.62-1-9.07-.75-18.28-1.29-27.41a4.63,4.63,0,0,0-2.47-3.32c-3-1.11-3.45-3.4-1.46-4.82,3.41-2.43,3-5.5,3.12-8.8,0.18-4.45,1.95-5.13,6.07-3.26,4.29,1.94,8.58,3.83,13.7,2.8,3-.6,6.29.18,9.45,0.33Z" transform="translate(-106.91 -174.22)"/></g><path class="cls-1" d="M144.95,610.7h-7.41v20.54h-3.84V610.7h-7.42v-3.22h18.68v3.22Z" transform="translate(-106.91 -174.22)"/><path class="cls-1" d="M150.85,616.41a9,9,0,0,1,2.28-1.64,6.39,6.39,0,0,1,2.89-.62,6,6,0,0,1,2.43.46,4.85,4.85,0,0,1,1.77,1.3,5.61,5.61,0,0,1,1.08,2,8.81,8.81,0,0,1,.36,2.6v10.71h-3.53V620.54a4,4,0,0,0-.78-2.64A2.93,2.93,0,0,0,155,617a4.58,4.58,0,0,0-2.2.54,7.55,7.55,0,0,0-1.91,1.48v12.26h-3.55V606.83h3.55v9.59Z" transform="translate(-106.91 -174.22)"/><path class="cls-1" d="M168.39,623.11a8.44,8.44,0,0,0,.45,2.48,5.11,5.11,0,0,0,1,1.74,4,4,0,0,0,1.52,1,5.47,5.47,0,0,0,2,.34,6,6,0,0,0,1.8-.24,8.36,8.36,0,0,0,1.32-.53q0.56-.29,1-0.53a1.43,1.43,0,0,1,.73-0.24,0.76,0.76,0,0,1,.66.33l1,1.3a6.37,6.37,0,0,1-1.42,1.25,8.24,8.24,0,0,1-1.68.83,9.56,9.56,0,0,1-1.83.46,12.52,12.52,0,0,1-1.83.14,8.82,8.82,0,0,1-3.24-.58,7.21,7.21,0,0,1-2.59-1.72,8,8,0,0,1-1.72-2.82,11.2,11.2,0,0,1-.62-3.88,9.47,9.47,0,0,1,.55-3.27,7.8,7.8,0,0,1,1.58-2.64,7.45,7.45,0,0,1,2.51-1.77,8.19,8.19,0,0,1,3.34-.65,8,8,0,0,1,2.87.5,6.31,6.31,0,0,1,2.28,1.48,6.8,6.8,0,0,1,1.49,2.38,9,9,0,0,1,.54,3.21,2.27,2.27,0,0,1-.18,1.11,0.73,0.73,0,0,1-.66.28H168.39Zm8.46-2.18a5.22,5.22,0,0,0-.26-1.66,3.89,3.89,0,0,0-.75-1.34,3.44,3.44,0,0,0-1.23-.89,4.18,4.18,0,0,0-1.69-.32,4.1,4.1,0,0,0-3,1.11,5.36,5.36,0,0,0-1.4,3.1h8.37Z" transform="translate(-106.91 -174.22)"/><path class="cls-1" d="M207.05,628.13l0,3.12H192.22V607.49H207v3.12H196.09v7.16h8.74v3h-8.74v7.34h11Z" transform="translate(-106.91 -174.22)"/><path class="cls-1" d="M214.08,606.83v24.42h-3.55V606.83h3.55Z" transform="translate(-106.91 -174.22)"/><path class="cls-1" d="M221,623.11a8.44,8.44,0,0,0,.45,2.48,5.11,5.11,0,0,0,1,1.74,4,4,0,0,0,1.52,1,5.47,5.47,0,0,0,2,.34,6,6,0,0,0,1.8-.24,8.36,8.36,0,0,0,1.32-.53q0.56-.29,1-0.53a1.43,1.43,0,0,1,.73-0.24,0.76,0.76,0,0,1,.66.33l1,1.3a6.37,6.37,0,0,1-1.42,1.25,8.24,8.24,0,0,1-1.68.83,9.56,9.56,0,0,1-1.83.46,12.52,12.52,0,0,1-1.83.14,8.82,8.82,0,0,1-3.24-.58,7.21,7.21,0,0,1-2.59-1.72,8,8,0,0,1-1.72-2.82,11.2,11.2,0,0,1-.62-3.88,9.47,9.47,0,0,1,.55-3.27,7.8,7.8,0,0,1,1.58-2.64,7.45,7.45,0,0,1,2.51-1.77,8.19,8.19,0,0,1,3.34-.65,8,8,0,0,1,2.87.5,6.31,6.31,0,0,1,2.28,1.48,6.8,6.8,0,0,1,1.49,2.38,9,9,0,0,1,.54,3.21,2.27,2.27,0,0,1-.18,1.11,0.73,0.73,0,0,1-.66.28H221Zm8.46-2.18a5.22,5.22,0,0,0-.26-1.66,3.89,3.89,0,0,0-.75-1.34,3.44,3.44,0,0,0-1.23-.89,4.18,4.18,0,0,0-1.69-.32,4.1,4.1,0,0,0-3,1.11,5.36,5.36,0,0,0-1.4,3.1h8.37Z" transform="translate(-106.91 -174.22)"/><path class="cls-1" d="M250.41,614.42l-6.77,16.83h-3.2l-6.77-16.83h2.92a1.11,1.11,0,0,1,.68.21,0.94,0.94,0,0,1,.35.49l3.73,9.8q0.23,0.69.41,1.37t0.31,1.37q0.13-.69.32-1.36t0.42-1.38l3.8-9.8a1,1,0,0,1,.36-0.5,1,1,0,0,1,.64-0.2h2.77Z" transform="translate(-106.91 -174.22)"/><path class="cls-1" d="M252,616.76a9.64,9.64,0,0,1,6.8-2.66,6.68,6.68,0,0,1,2.58.47,5.14,5.14,0,0,1,1.9,1.33,5.87,5.87,0,0,1,1.17,2,8,8,0,0,1,.4,2.62v10.69h-1.58a1.53,1.53,0,0,1-.78-0.16,1.2,1.2,0,0,1-.45-0.63l-0.35-1.37a15.86,15.86,0,0,1-1.27,1,8,8,0,0,1-1.29.77,6.36,6.36,0,0,1-1.44.47,8.48,8.48,0,0,1-1.69.16,6.25,6.25,0,0,1-1.91-.28,4.17,4.17,0,0,1-1.53-.85,4,4,0,0,1-1-1.41,4.88,4.88,0,0,1-.37-2,3.82,3.82,0,0,1,.52-1.9,4.74,4.74,0,0,1,1.72-1.66,11.13,11.13,0,0,1,3.15-1.21,22.86,22.86,0,0,1,4.83-.54v-1.12a4,4,0,0,0-.78-2.71,2.86,2.86,0,0,0-2.28-.89,5,5,0,0,0-1.72.26,7.85,7.85,0,0,0-1.21.55l-0.91.55a1.52,1.52,0,0,1-.84.26,1,1,0,0,1-.62-0.19,1.56,1.56,0,0,1-.42-0.47Zm9.41,7.13a22.61,22.61,0,0,0-3.2.31,9.1,9.1,0,0,0-2.11.61,2.79,2.79,0,0,0-1.16.88,1.92,1.92,0,0,0-.35,1.12,2.47,2.47,0,0,0,.19,1,1.85,1.85,0,0,0,.53.69,2.12,2.12,0,0,0,.79.4,3.76,3.76,0,0,0,1,.12,5.1,5.1,0,0,0,2.38-.52,7.45,7.45,0,0,0,1.94-1.51v-3.12Z" transform="translate(-106.91 -174.22)"/><path class="cls-1" d="M272.39,617.53A7.45,7.45,0,0,1,274.3,615a4.12,4.12,0,0,1,2.69-.92,4.05,4.05,0,0,1,1,.12,2.87,2.87,0,0,1,.86.37l-0.25,2.67a0.66,0.66,0,0,1-.21.39,0.59,0.59,0,0,1-.37.11,4,4,0,0,1-.71-0.09,5,5,0,0,0-1-.09,3.72,3.72,0,0,0-1.31.21,3.16,3.16,0,0,0-1,.63,4.22,4.22,0,0,0-.8,1,9.73,9.73,0,0,0-.64,1.35v10.46H269V614.42h2.06a1.12,1.12,0,0,1,.78.21,1.27,1.27,0,0,1,.3.72Z" transform="translate(-106.91 -174.22)"/><path class="cls-1" d="M153.87,645.49v23.76h-3.4V653c0-.26,0-0.55,0-0.87s0-.63.07-0.95l-7.64,14.11a1.45,1.45,0,0,1-1.37.88H141a1.43,1.43,0,0,1-1.37-.87l-7.75-14.14q0,0.48.07,1t0,0.89v16.29h-3.4V645.49h2.89a2.69,2.69,0,0,1,.79.09,1,1,0,0,1,.51.55l7.62,13.81c0.16,0.32.32,0.65,0.47,1s0.28,0.68.4,1q0.2-.53.42-1t0.47-1l7.51-13.78a1,1,0,0,1,.51-0.55,2.69,2.69,0,0,1,.79-0.09h2.89Z" transform="translate(-106.91 -174.22)"/><path class="cls-1" d="M160.92,661.11a8.44,8.44,0,0,0,.45,2.48,5.11,5.11,0,0,0,1,1.74,4,4,0,0,0,1.52,1,5.47,5.47,0,0,0,2,.34,6,6,0,0,0,1.8-.24,8.36,8.36,0,0,0,1.32-.53q0.56-.29,1-0.53a1.43,1.43,0,0,1,.73-0.24,0.76,0.76,0,0,1,.66.33l1,1.3a6.37,6.37,0,0,1-1.42,1.25,8.24,8.24,0,0,1-1.68.83,9.56,9.56,0,0,1-1.83.46,12.52,12.52,0,0,1-1.83.14,8.82,8.82,0,0,1-3.24-.58,7.21,7.21,0,0,1-2.59-1.72,8,8,0,0,1-1.72-2.82,11.2,11.2,0,0,1-.62-3.88,9.47,9.47,0,0,1,.55-3.27,7.8,7.8,0,0,1,1.58-2.64A7.45,7.45,0,0,1,162,652.8a8.19,8.19,0,0,1,3.34-.65,8,8,0,0,1,2.87.5,6.31,6.31,0,0,1,2.28,1.48,6.8,6.8,0,0,1,1.49,2.38,9,9,0,0,1,.54,3.21,2.27,2.27,0,0,1-.18,1.11,0.73,0.73,0,0,1-.66.28H160.92Zm8.46-2.18a5.22,5.22,0,0,0-.26-1.66,3.89,3.89,0,0,0-.75-1.34,3.44,3.44,0,0,0-1.23-.89,4.18,4.18,0,0,0-1.69-.32,4.1,4.1,0,0,0-3,1.11,5.36,5.36,0,0,0-1.4,3.1h8.37Z" transform="translate(-106.91 -174.22)"/><path class="cls-1" d="M181.11,669.51a4.26,4.26,0,0,1-3.23-1.18,4.61,4.61,0,0,1-1.13-3.32v-9.8h-1.85a0.74,0.74,0,0,1-.51-0.19,0.72,0.72,0,0,1-.21-0.57V653l2.72-.4,0.78-4.87a0.93,0.93,0,0,1,.28-0.45,0.78,0.78,0,0,1,.53-0.17h1.81v5.53H185v2.56h-4.67v9.55a2,2,0,0,0,.45,1.39,1.55,1.55,0,0,0,1.19.48,2.1,2.1,0,0,0,.71-0.11,3.14,3.14,0,0,0,.51-0.23l0.37-.23a0.5,0.5,0,0,1,.78.22l1.06,1.73a5.74,5.74,0,0,1-1.95,1.11A7,7,0,0,1,181.11,669.51Z" transform="translate(-106.91 -174.22)"/><path class="cls-1" d="M191.33,654.41a9,9,0,0,1,2.28-1.64,6.39,6.39,0,0,1,2.89-.62,6,6,0,0,1,2.43.46,4.85,4.85,0,0,1,1.77,1.3,5.61,5.61,0,0,1,1.08,2,8.81,8.81,0,0,1,.36,2.6v10.71H198.6V658.54a4,4,0,0,0-.78-2.64,2.93,2.93,0,0,0-2.38-.94,4.58,4.58,0,0,0-2.2.54,7.55,7.55,0,0,0-1.91,1.48v12.26h-3.55V644.83h3.55v9.59Z" transform="translate(-106.91 -174.22)"/><path class="cls-1" d="M213.57,652.15a8.92,8.92,0,0,1,3.37.61,7.23,7.23,0,0,1,2.57,1.73,7.68,7.68,0,0,1,1.64,2.72,11.49,11.49,0,0,1,0,7.19,7.78,7.78,0,0,1-1.64,2.73,7.18,7.18,0,0,1-2.57,1.74,9.68,9.68,0,0,1-6.76,0,7.26,7.26,0,0,1-2.58-1.74,7.71,7.71,0,0,1-1.65-2.73,11.49,11.49,0,0,1,0-7.19,7.62,7.62,0,0,1,1.65-2.72,7.32,7.32,0,0,1,2.58-1.73A9,9,0,0,1,213.57,652.15Zm0,14.57a3.92,3.92,0,0,0,3.39-1.53,7.32,7.32,0,0,0,1.11-4.36,7.4,7.4,0,0,0-1.11-4.38,3.9,3.9,0,0,0-3.39-1.54,4,4,0,0,0-3.43,1.54,7.36,7.36,0,0,0-1.12,4.38,7.28,7.28,0,0,0,1.12,4.36A4,4,0,0,0,213.57,666.72Z" transform="translate(-106.91 -174.22)"/><path class="cls-1" d="M239.42,644.83v24.42h-2.15a0.86,0.86,0,0,1-.91-0.68l-0.31-1.83a8.88,8.88,0,0,1-2.4,2,6.25,6.25,0,0,1-3.13.76,5.75,5.75,0,0,1-2.57-.57,5.54,5.54,0,0,1-2-1.66,8,8,0,0,1-1.28-2.7,13.61,13.61,0,0,1-.45-3.69,11.54,11.54,0,0,1,.5-3.48,8.49,8.49,0,0,1,1.44-2.78,6.58,6.58,0,0,1,5.3-2.52,5.7,5.7,0,0,1,4.39,1.78v-9.06h3.55Zm-3.55,11.73a4.18,4.18,0,0,0-1.63-1.34,4.88,4.88,0,0,0-1.93-.38,3.87,3.87,0,0,0-3.25,1.53,7.33,7.33,0,0,0-1.17,4.51,11.46,11.46,0,0,0,.26,2.65,5.12,5.12,0,0,0,.76,1.79,2.92,2.92,0,0,0,1.2,1,3.9,3.9,0,0,0,1.6.31,4.47,4.47,0,0,0,2.33-.58,6.73,6.73,0,0,0,1.82-1.66v-7.84Z" transform="translate(-106.91 -174.22)"/></svg>