<svg id="Layer_1" data-name="Layer 1" xmlns="http://www.w3.org/2000/svg" viewBox="0 0 381.99 449.49"><defs><style>.cls-1{fill:#ff4b38;}</style></defs><title>hcvc_o</title><path class="cls-1" d="M14,41.55c5.76,0.72,11.12-.51,16.44,1.51a90.77,90.77,0,0,0,2.84-14.72C33.88,21.87,34,15.43,34.08,9c0-1.7,0-3.4,2.18-3.94a5.49,5.49,0,0,1,6,2.32c1,1.53.83,3.19,0.83,4.84,0,9-.06,18-0.09,27v3.5a2,2,0,0,0,1.38,1.9c2.5,0.75,4.88,1.75,7.71.83a27.93,27.93,0,0,0,8.64-4.76c0.77-.6,2-1.6,1.89-2.18-0.76-3.81,2.68-5,4.31-7.28s3.76-2.82,5.55-2,2.81,2.93,2.48,5.5c-0.21,1.63-.7,3.22-1,4.83C71.58,51,71.93,62.63,72.16,74.24c0.11,5.82,2.77,10.41,8,13.81a15.64,15.64,0,0,0,3-6.15c1.22-6,2.27-12,3.08-18a195.28,195.28,0,0,0,2-23.23,58.61,58.61,0,0,1,1.42-10.78c0.76-3.73,2.19-5,4.57-4.89C97,25.14,100,28,99.91,30.9c-0.43,10,1.18,19.91,1,29.88A62.76,62.76,0,0,1,99.43,71c-1,5.57,1.08,10.39,3.38,15.16a2,2,0,0,0,2.59,1.14l0.29-.14a4.24,4.24,0,0,1,3.82.47,4.08,4.08,0,0,1,2,5.35c-2.73,7.13-9.83,6.9-15.68,2.92a16.81,16.81,0,0,1-5.3-5.77,2.4,2.4,0,0,0-1.08.26c-3.89,6.7-10.07,6-16.29,5C68.56,94.68,66,92,65,87.4a68,68,0,0,1-2-16.69c0.18-7,0-14,0-21a3.31,3.31,0,0,0-.53-0.82,25.86,25.86,0,0,1-18.56,1.89c-1.26,1.55-.78,2.93-0.83,4.21-0.52,11.82,1.59,23.56,1,35.37a27.24,27.24,0,0,1-.35,5c-0.37,1.56-.92,3.28-3,3.56-1.73.23-4.8-1.25-5.51-2.79a8.13,8.13,0,0,1-.86-2.84C34.13,89.49,32.94,85.84,33,82c0.17-8.5,0-17,0-25.5,0-.64-0.14-1.28-0.23-2.17-6.08-1-12.41.88-18.37-2.21a10.57,10.57,0,0,0-.21,6.34c1,3.63.31,7.31,0.88,10.89,1.16,7.27.81,14.57,1.06,21.87,0.14,4-.74,7.2-4.58,9.31-3.94-1.32-7.64-3-7.52-8.3C1.14,85.9,2.82,79.1,1.9,72.63c-1.56-11-.44-21.91-0.83-32.85a40.39,40.39,0,0,1,.72-9.39A17.25,17.25,0,0,0,1.5,22a5.89,5.89,0,0,1-.21-3.43,17.12,17.12,0,0,0,0-9.29C0.5,6.21,3.22,1.6,6.2.27a3.56,3.56,0,0,1,4.66,1.9L11,2.39c0.32,1.11.36,2.27,1.19,3.2,1.81,2,1.85,4.49,1.84,7v25.5C14,39.12,14,40.11,14,41.55Z" transform="translate(0.02 0.01)"/><path class="cls-1" d="M340.94,197.51c-3.33-.71-4-3-3.9-5.64a56.1,56.1,0,0,0-1.45-14.12c-3,3.64-5,7.47-7.35,11-4.47,6.6-11.81,7.31-18.14,5.53-3.62-1-7.27-2.69-8.77-6.74a4.31,4.31,0,0,0-2.52-2.25,17.06,17.06,0,0,1-7.67-8.22c-1.85-3.88-4.12-7.57-5.14-11.81-0.35-1.46-1.09-2.4-2.71-2.38a3.93,3.93,0,0,1-2.76-.91c-1.67-1.42-1.69-2.67,0-4.07a1.25,1.25,0,0,1,.38-0.32c4.66-1,4.27-4.59,4.21-8.15-0.13-9,.66-17.82,3.73-26.37a8.86,8.86,0,0,1,2.68-4,3,3,0,0,1,1.69-.93c2.8,0.3,5-1.25,7.44-2.09,7.55-2.57,13.77,1.41,17.12,6.53a7.66,7.66,0,0,1,1.29,3.71,33,33,0,0,1-5.35,21.26c-3.13,4.7-6.15,9.5-11.22,12.46-1.51.89-1.66,2.13-1.13,3.85,1.77,5.75,4.67,11,7.24,16.35,0.7,1.46,1.73,1.72,3.18,1.78a18.79,18.79,0,0,0,7.68-1.7c2.13-.82,2.78-2.68,3.54-4.54,1.22-3,1.73-3.15,5.15-2.93a15.69,15.69,0,0,1,6.6,1.36c0.1-3.36-.81-6.19-0.78-9.12,0.15-12.16.08-24.33,0-36.49a25.72,25.72,0,0,0-.76-7.85c-1-3,.12-5.59,3-7.69,5-3.63,10.13-4.16,15.46-1.67,15.63,7.29,26.27,18.68,29.41,36.25a44.73,44.73,0,0,1-.11,18.21,21.54,21.54,0,0,1-7.63,11.92c-7,5.78-15.19,9.36-23.74,12.14-2.52.82-5,1.43-5.9,4.52C343.39,195.62,341.85,196.54,340.94,197.51Zm5.5-18.8A94.83,94.83,0,0,1,359,173c3.17-1.14,5-3.43,6.16-6.62A100,100,0,0,0,368.53,154c1.39-6,.23-11.1-4.14-15.44a54,54,0,0,0-4-3.8,37.17,37.17,0,0,0-15.3-7.85c0,2.22-.45,4.17.1,5.79,1,2.94.84,5.89,0.85,8.85,0,7.81,0,15.61-.09,23.42a12,12,0,0,1-.22,4C344.53,172.31,345.15,175.42,346.44,178.71Zm-42.89-52.26c-2.75,7.11-4.21,13.87-3.28,21.21,7.6-6.49,9.16-15.32,3.28-21.21h0Zm13.77,61.91,0.25,0.16v-0.24Z" transform="translate(0.02 0.01)"/><path class="cls-1" d="M261.69,380c-2.4,5.23-6.22,8.21-9.13,12-3.1,4-4.66,4.54-9.29,2.9-2.65-.94-5.11-2.31-7.71-3.39a7.39,7.39,0,0,1-4.53-6.68c-0.41-9.43-1.48-18.84-1.07-28.31a125.47,125.47,0,0,1,1.76-15.22A131.47,131.47,0,0,0,233,328a39,39,0,0,1,1.86-9.67c1.5-4.48,2.9-5.46,7.57-5.48a33.86,33.86,0,0,0,3.49,0,9,9,0,0,1,7.36,2.22,12.45,12.45,0,0,0,2,1.45c9.12,5.47,13.67,13.66,13.69,24.16,0,5.94.94,12-.71,17.85,1.49,5.67,1.18,11.83,4.77,16.93,2.1,3,4,6.07,6,9.1,0.27,0.41.58,0.81,0.84,1.23,3.14,5,.62,8.23-3.83,9.94-1.44.55-2.93,1.39-4.78,0.92-4.08-1-5.55-2.56-6.3-7.76A18.49,18.49,0,0,0,261.69,380Zm-13.13-44.93a2.91,2.91,0,0,0-1.46,2.53,31.58,31.58,0,0,1-.46,3.93c-1,5.32-1.88,10.67-2.79,16-0.61,3.61-.37,7.29-1.22,10.79A6,6,0,0,0,243,373a3.61,3.61,0,0,1-.5,4.87c-1.31,1.48-.57,2.93,1.34,3.72a5.48,5.48,0,0,0,.88-1.3c1.79-6.16,3.53-12.34,5.31-18.51s1.1-12.53.87-18.79a15.51,15.51,0,0,0-2.38-7.92h0Z" transform="translate(0.02 0.01)"/><path class="cls-1" d="M330,282.69a2.13,2.13,0,0,0,1.88-2c1.22-5.66,3.41-11,5.18-16.49a16.39,16.39,0,0,1,12.47-11.62c3.25-.78,5.46.78,5.54,4.15,0.12,5.14.16,10.34-1.3,15.29a36.87,36.87,0,0,1-10.51,16.47c-4.57,4.34-9.5,5.69-15.67,5.57-7.24-.13-12.4-3.21-16.37-8.75A40.57,40.57,0,0,1,304,265c-0.33-3.65-1.67-7-2.37-10.6a43.9,43.9,0,0,1-.12-13.79,84.47,84.47,0,0,1,4.11-17.26,37,37,0,0,1,5.56-9.89c1.26-1.73,3.17-2.28,5.12-2.8,11.62-3.1,19,2.28,22.58,10.88,2.39,5.77.09,11-3.62,15.58-2.76,3.36-6.61,5.51-10.15,7.94-1.49,1-2.36,2-2.29,4,0.17,5,0,10,.22,15S326.9,278.4,330,282.69ZM326.3,223v9.76C330.24,229.1,330.24,227,326.3,223Z" transform="translate(0.02 0.01)"/><path class="cls-1" d="M240.18,28.83c4.8-8.11,20-11.11,28.94-2.39a18.8,18.8,0,0,1,5.38,8.2,90.88,90.88,0,0,1,2.58,12.06c1.59,10.44.66,20.91,1,31.37a30.45,30.45,0,0,1-2,12.16,16.29,16.29,0,0,0-1,7.32c0.13,1.67-.85,2.33-2.12,3a2.75,2.75,0,0,1-3.19-.52c-3.61-2.75-4.55-5.51-3.27-10,0.9-3.17,2.27-6.15,2.7-9.51a112,112,0,0,0,.06-27.75c-0.46-3.93-.34-7.92-1.09-11.86a48.52,48.52,0,0,0-1.5-5.73c-2-6.3-7.77-7-12-6-5.15,1.28-6.73,3.72-7.74,9.09-1.29,6.87-2.64,13.81-1.66,20.71,1,7.41.25,14.87,1.47,22.29,0.71,4.34,1.63,8.8,1.37,13.32-0.17,3,1.23,5.81.93,8.87-0.18,1.86-.68,3.16-2.57,3.78a29.19,29.19,0,0,0-3.61,1.61c-5.06,2.48-12.14-1.73-12.81-6.59-0.56-4.07-1.35-8.12-2-12.19-1-6.68-1.61-13.4-2.76-20.07-0.64-3.71-.76-7.56-1.14-11.35-0.35-3.45-.73-6.95-0.88-10.36-0.31-7-1.21-13.89-1.19-20.86,0-1.12-.42-2.48.57-3.32A18.67,18.67,0,0,1,227.09,21a4.26,4.26,0,0,1,5.55,2.35q0.07,0.17.12,0.35c0.66,2.38,1.62,3.44,4,3.29C238.12,26.92,238.66,28.37,240.18,28.83Z" transform="translate(0.02 0.01)"/><path class="cls-1" d="M158.2,38.16c-3,7.15-6.09,14.27-9,21.47a15.32,15.32,0,0,1-2.74,5.21c-1.94,2.07-3.91,2.13-5.58-.23-2.77-3.92-5.35-8-8-11.95a16.34,16.34,0,0,0-1.28-1.49,3.11,3.11,0,0,0-.5,3c1.14,5.68,1.53,11.43,2.12,17.17,0.47,4.64.48,9.26,0.8,13.88s-2.36,7.8-5,10.93c-1.47,1.73-11.21,1.06-12.87-.53a4,4,0,0,1-1.1-3.18v-7c0-18.33.07-36.66,0-55a42.55,42.55,0,0,1,1.12-8.33,5.82,5.82,0,0,1,4.85-5,6.07,6.07,0,0,1,6.42,3,54.06,54.06,0,0,1,3.59,7c3.67,8.17,9.19,15.28,13.15,24.23,2.56-6.1,4.74-11.34,7-16.56a30.77,30.77,0,0,1,2-4c1.9-3.11,4.12-6,5.7-9.33,0.77-1.62,2-2.73,4-2.09s3.27,1.54,3.24,3.85c0,5.66,0,11.33,0,17,0,6.62,1,13.16,1.68,19.74,0.48,4.79.11,9.66,0.21,14.49a50,50,0,0,0,.8,9.84c0.8,3.66.31,7.62,0.19,11.45,0,1.31-1,2.43-1.77,3.5-2.67.45-4-1.14-4.69-3.3a40.92,40.92,0,0,1-2.37-12.06c-0.1-4.5-.13-9,0-13.5A201.5,201.5,0,0,0,158.2,38.16Z" transform="translate(0.02 0.01)"/><path class="cls-1" d="M288.85,254.11c4.5,4.15,5.42,9.42,6.32,14.9,1,6.1.44,12.22,1,18.2,1.44,1.27,3,.77,4.44.74a3,3,0,0,1,3,2,2.71,2.71,0,0,1-.7,3.56,38.81,38.81,0,0,1-4.39,4.06c-5.89,4.15-12.16,1.22-13.6-6a61.84,61.84,0,0,1-.78-11.37c-0.06-4.31.1-8.64-1.15-12.83-0.32-1.08-.85-2.09-1.38-3.38a47.2,47.2,0,0,1-10.39,8.11,3.93,3.93,0,0,0-2.21,4c0.13,5.82,0,11.65.07,17.48,0.06,3.46-1.51,5.52-4.66,6.76s-5.2,0-5.42-3.23c-0.12-1.8.17-3.65-1.35-5.13a2.65,2.65,0,0,1-.55-1.84c0.16-3-.94-5.92-0.93-8.85,0-11.46-1.74-22.84-1.18-34.32,0.24-5,0-10,0-15a23.83,23.83,0,0,0-.51-5.41c-1-4.34.78-7.22,4.94-8.8,3.1-1.18,6.14-2.56,9.55-1a3.8,3.8,0,0,0,2,.11c5.91-.8,10.33,2.3,14.15,6a19.71,19.71,0,0,1,6,14.76v6C291.1,247.22,291.31,250.89,288.85,254.11ZM268,257c2.79-2.67,5.16-4.54,7-6.81,4.51-5.43,4.4-14.24-1.45-19.12a3.84,3.84,0,0,0-4.11-.83c-1.57.59-1.49,2-1.48,3.34C268,241.14,268,248.74,268,257Z" transform="translate(0.02 0.01)"/><path class="cls-1" d="M35.63,387.59c3.12-3.76,3.37-7.49,4.15-10.91,0.53-2.32,1.15-4.38,3.56-4.71,2.76-.38,5.68-0.38,8,1.76A3,3,0,0,1,52,376c0,3.15.18,6.27-1,9.34a61.62,61.62,0,0,1-3.94,9.1c-2.39,4.19-5.64,6.74-10.81,6.54-4.32-.17-8.71.31-12.32-2.77a32,32,0,0,1-6.4-8.19,33,33,0,0,1-4.29-12c-1-6.72-3.08-13.15-4.54-19.74-0.82-3.7-1.32-7.45-1.81-11.22a150.65,150.65,0,0,1-.75-21.86c0.07-4.39,1.22-8.42,4.59-11.67,4.19-4.06,9.12-5.1,14.66-4.33,4.14,0.58,7.48,2.42,9.53,6.22a9.44,9.44,0,0,0,5,4.55A3.15,3.15,0,0,1,42,323.5a15.49,15.49,0,0,1-2.58,6.85c-1.25,2.11-4.1,1.82-6.44,1.4a5.44,5.44,0,0,1-3.54-2.44,2,2,0,0,0-1.37,1.92c0.23,6-1.55,11.84-1.12,17.84a93.54,93.54,0,0,0,7,30.73C35.61,383.49,35.69,383.46,35.63,387.59Z" transform="translate(0.02 0.01)"/><path class="cls-1" d="M126,170.93a14,14,0,0,0,.1-1.49c-0.63-16.14,1.29-32.22,1-48.35-0.07-4,.49-4.54,4.49-5.81,1.46,0.93,2,2.59,3,3.93a18.58,18.58,0,0,1,3.58,12.14,87,87,0,0,0,1.12,21.83c1.79,10.23,1.88,20.42,1.85,30.7,0,5-2.23,8.57-6,11.38s-7.36,2.12-10.24-1.78a71.83,71.83,0,0,1-7.54-12.78,77.6,77.6,0,0,0-4.84-9.22,35.62,35.62,0,0,1-4.88-10.55c-1,2-.59,3.69-0.6,5.31v32.48c0,2.53-1,3.91-3.14,4.21a3.58,3.58,0,0,1-3.57-1.28,7.73,7.73,0,0,1-2.1-4.42c-0.1-4.31-1.34-8.49-1.1-12.85A67.17,67.17,0,0,0,97,171.9c-1.5-11.28-.31-22.59-0.87-33.86a12.93,12.93,0,0,1,1.48-7.18c0.92-1.68,1.09-3.78,1.62-5.68a2.68,2.68,0,0,1,2.28-2.29c1.49-.21,2.71.16,3.34,1.53a23.2,23.2,0,0,1,2.12,5.51,40.06,40.06,0,0,0,4.55,11.93c4.39,8.34,8.82,16.67,12.44,25.4,0.54,1.29.68,2.9,2.23,3.6,0.18,0.19-.09,1,0.62.47Z" transform="translate(0.02 0.01)"/><path class="cls-1" d="M116.71,223.85c3.33-.8,5-3.33,7.44-4.71a8.81,8.81,0,0,1,10.47.82c6.09,5.33,8.56,12.19,9.52,20.08,1.11,9.12.53,18.24,0.86,27.35,0.15,4.17-1.31,8.17-1,12.36,0.21,2.8.11,5.5,1.41,8.21,1.59,3.31-.74,6.11-4.57,6-4.24-.13-7.78-3.29-7.74-7.48,0-5.28-.75-10.63.76-15.86a10.7,10.7,0,0,0,.1-3c-0.1-10,.51-19.93-0.94-29.84-0.44-3-.72-6.16-2.69-8.81-5.36,2.79-6.91,7.25-7.38,12.7-0.59,6.9-.59,13.86-1.8,20.71a24.13,24.13,0,0,0-.16,4.49c0.07,5-.92,9.84-1.71,14.73-0.6,3.75-.85,7.55-1.24,11.33-0.07.66,0,1.34-.09,2-0.3,2.43-2.2,4.81-4,5-3.69.5-5.53-.42-7.07-3.26a9.74,9.74,0,0,1-.85-4.84c0-11.65-.24-23.31,0-35,0.16-8-.69-15.91-1.2-23.84-0.25-3.77-.78-7.56-0.84-11.36a7.74,7.74,0,0,1,.84-4.34,4.61,4.61,0,0,1,5.84-1.46C113.64,217.76,114.82,221,116.71,223.85Z" transform="translate(0.02 0.01)"/><path class="cls-1" d="M88.54,362.84c-4,.67-7.42-1.29-11.34-0.82,0,3.84-.56,7.57.14,11,0.84,4.16.64,8.27,0.69,12.39,0.06,5.4-3.63,8.77-9,9a2,2,0,0,1-1.68-.71,9,9,0,0,1-2.44-3.64,48.71,48.71,0,0,1-2.41-11.59c-0.75-8.59-1.12-17.25.18-25.83,1.33-8.79,3.61-17.42,4.39-26.31,0.38-4.28,2.67-7.73,5.22-11,2.72-3.54,11.75-3.19,14,1.2,1.63,3.26,3.54,6.39,4.74,9.84a258.8,258.8,0,0,1,10.13,37.18c0.25,1.29.68,2.55,0.94,3.84a1.67,1.67,0,0,0,1.63,1.54,3.22,3.22,0,0,1,2.85,3c0.74,5,1.6,10.12-.94,15.07-1.17,2.28-2.73,2.85-5.13,3a5,5,0,0,1-5.26-2.88,38.12,38.12,0,0,1-3.09-9.38A115.9,115.9,0,0,0,88.54,362.84Zm-9.18-31.58c-2.31,6.5-.63,12.29-2.12,17.69a1.32,1.32,0,0,0,1.94,1.38c2.27-.86,3.43.15,3.91,2.33a1.45,1.45,0,0,0,1.66,1.2l0.19,0c1.45-.24,1.29-1.43,1-2.3-1.91-6.42-3.5-13-6.59-20.26h0Z" transform="translate(0.02 0.01)"/><path class="cls-1" d="M204.64,88.89c1,5.95-2.6,9.39-6.89,12-4,2.41-8.21.6-11.64-1.64-3.65-2.38-5.84-6.07-7.16-10.43-2.41-8-3.4-16.06-4.14-24.32-0.52-5.8-.81-11.56-0.81-17.36a39.6,39.6,0,0,1,8.21-24.95,10,10,0,0,0,1.44-2.59A10.64,10.64,0,0,1,187,15.34c4.47-3.83,10.19-3.33,13.4,1.67a30.14,30.14,0,0,1,4.73,13.41c1.25,11.29.72,22.57,0.9,33.86,0,1.33,0,2.67,0,4-0.16,5.44-.06,6.54,2.19,11.08,2.56,5.18,4.59,10.72,9.26,14.57a4.71,4.71,0,0,1,1,1.13c1,1.65.67,4.43-.83,5.42a3,3,0,0,1-4-.93c-2.32-2.79-5.17-5.16-6.93-8.42C206.22,90.32,206.09,89.13,204.64,88.89Zm-9.48-1.18A36,36,0,0,0,198,74.8c0.12-10.29.12-20.59,0.08-30.88,0-6.86-3-9-9.59-7.43C186.56,42.16,187,48,187,53.74c0,4.65.16,9.31-.06,13.94-0.41,7.65,3.35,13.47,8.19,20h0Z" transform="translate(0.02 0.01)"/><path class="cls-1" d="M29.94,267.58c0-4.35.71-8.43,1-12.53,0.44-6,1.64-11.78,2.41-17.67C33.93,233,35,228.62,35,224.14A5.46,5.46,0,0,1,36.26,220c2.76-2.94,6.58-2.6,8.69.88a8.06,8.06,0,0,1,1.15,4.76c-0.28,5,.45,10-1,14.86A4.39,4.39,0,0,0,45,242c0.48,7.16-.85,14.23-1.3,21.33-0.34,5.29-.57,10.58-0.79,15.87A74.15,74.15,0,0,1,41.68,287a41.6,41.6,0,0,0-.64,5.88,7.11,7.11,0,0,1-.41,2.93c-1.21,2.77-2.6,3.89-5.39,3a20.69,20.69,0,0,0-6.31-.88A3.54,3.54,0,0,1,26,296.32c-1.59-2.29-3.51-4.41-4-7.32a26.78,26.78,0,0,0-2.48-7c-4.22-8.67-6.64-17.9-8.5-27.3-1.5-7.59-3.08-15.17-4.44-22.79-0.75-4.21-1.32-8.43-2.41-12.59C3.3,216,6.5,213.82,10,214.8a6.85,6.85,0,0,1,4,2.72c2.41,3.53,4.65,7,5.17,11.58,0.64,5.68,2.52,11.22,3.89,16.82q2.47,10.06,5,20.1A2.06,2.06,0,0,0,29.94,267.58Z" transform="translate(0.02 0.01)"/><path class="cls-1" d="M228,131.19a29.91,29.91,0,0,1-5,17.56c-3.12,4.9-6.12,9.9-11.33,13-1.64,1-2,2.23-1.34,4.21,1.8,5.74,4.67,11,7.28,16.32a2.48,2.48,0,0,0,2.23,1.65,17.61,17.61,0,0,0,9.1-2c1.82-.89,2.33-2.67,3-4.37,1.1-2.76,1.8-3.19,4.76-2.8,1.79,0.24,3.61-.15,5.39.72a2.84,2.84,0,0,1,2,3,7.58,7.58,0,0,1-1.32,3.72,111.31,111.31,0,0,1-6.33,9.51,13.3,13.3,0,0,1-10.79,5.3,18.45,18.45,0,0,1-11.33-3c-0.82-.55-2-1-2.32-1.79-1.47-3.18-4.22-4.86-6.93-6.76a13.56,13.56,0,0,1-4.44-5.31c-2-4.18-4.47-8.15-5.65-12.67-0.44-1.67-1.16-2.7-3-2.67a3.75,3.75,0,0,1-3.78-2.7,2.26,2.26,0,0,1,1.75-2.6c4.65-1,4.06-4.49,4-7.8a79.86,79.86,0,0,1,3-24.51,33.21,33.21,0,0,1,1.09-3.29c0.74-1.76,2.18-3.79,3.74-3.69,3.55,0.23,6.22-1.89,9.39-2.59,8.42-1.85,16.69,4.31,16.75,12.77C228,130.9,228,131.4,228,131.19Zm-18.86,18.34c4.84-3.66,6.73-7.16,6.79-12.47,0-3.09.41-6.33-3.41-8.35a41.32,41.32,0,0,0-3.36,20.82h0Zm17.13,40.83,0.25,0.16v-0.24Z" transform="translate(0.02 0.01)"/><path class="cls-1" d="M20.17,186c2.47-2.09,2.79-4.51,3.61-6.63,1.13-2.9,1.43-6.13,3.7-8.56,0.87-.94.56-2.23,0.5-3.37a6.32,6.32,0,0,1,1.41-4.15,2.4,2.4,0,0,1,3.39-.16l0,0a9.8,9.8,0,0,1,3.24,7c0.14,6.26-1.48,12.11-3.67,17.85A59.52,59.52,0,0,1,29,195.75c-2.67,4.81-5.93,5.89-11.24,4.23-3.2-1-6-2.75-9-4.23A9.53,9.53,0,0,1,5,191.85,35.16,35.16,0,0,1,.1,174.4C0,168.57.25,162.73,0,156.91c-0.26-6.67.65-13.27,1.19-19.86,0.56-6.85,3-13.16,8.82-17.73,3.69-2.92,7.53-3.16,11.65-1.54a15.3,15.3,0,0,1,7.68,6.81,91.39,91.39,0,0,1,5.85,12.55c0.83,2.07-.6,2.64-1.5,3.68s-1.87.9-3.11,0.39a7,7,0,0,1-3.54-3.31,18.06,18.06,0,0,0-6-5.93c-2.24-1.5-4.61-.39-5.11,2.31a13.6,13.6,0,0,0-.08,2.49c0,9.33-.14,18.67.17,28C16.33,171.84,18.38,178.66,20.17,186Z" transform="translate(0.02 0.01)"/><path class="cls-1" d="M225.26,288.51c3.19-6.93,5.81-13.21,6.82-20.16,1.28-8.77,1-17.58.9-26.37,0-5.67,1.17-11.21,1.13-16.87,0-2.91,1.17-3.86,4-4.2a5.15,5.15,0,0,1,5.5,3.25,11.67,11.67,0,0,1,.4,3.43c0,7.66.53,15.38-.21,23-0.9,9.2-.51,18.52-2.69,27.61a49.31,49.31,0,0,1-7.37,17.22c-3.37,4.78-7.88,5.92-13.48,4.51s-8.46-4.28-9.39-10c-1.6-9.93-4.08-19.69-3.8-29.91,0.29-10.65,0-21.32-.08-32,0-1.67,0-3.34.1-5a4.48,4.48,0,0,1,4.24-4.07,5.71,5.71,0,0,1,4.86,3.15,8.73,8.73,0,0,1,.74,2.86c-0.26,5.17.8,10.24,1.22,15.35,0.39,4.77,1.13,9.5,1.59,14.26,0.21,2.15.06,4.33,0.22,6.48a150,150,0,0,0,4.18,25.82A9.89,9.89,0,0,0,225.26,288.51Z" transform="translate(0.02 0.01)"/><path class="cls-1" d="M99.9,337.23c2.33,0,4.83-.09,7,1.87,1.44,1.28,3.55,1.51,5.33,1.89,1.28-1.61.72-3.16,0.78-4.61,0.09-2.33,0-4.67.06-7,0.25-5.06,1.91-9.23,6.64-12,5.84-3.39,11.87-5.7,18.73-5.61a9.82,9.82,0,0,1,7.08,3.06,25,25,0,0,1,7.21,15c1,7.54.43,15-4.76,21.2a23.58,23.58,0,0,1-15,8.84c-1.83.26-3.48,1-5.45,1.12,0.52,5.25,1,10.3,1.53,15.36,0.25,2.57,1,5,.34,7.78a5.49,5.49,0,0,1-4,4.4,5.78,5.78,0,0,1-5.29-2.07,8.92,8.92,0,0,1-2-4.47c-1-6.69-2-13.37-3-20-0.43-2.83-1.23-5.35-3.66-7.31s-4.86-4-7.46-5.77a29,29,0,0,1-2.4-1.8C98.46,344.38,96.48,341.52,99.9,337.23Zm27.62,12.7a9.69,9.69,0,0,0,2.28-.13c12.15-4.09,14.25-16.3,10.39-26.54a1.67,1.67,0,0,0-1.84-1.34c-4,1-8.09,1.73-11.35,4.54a1.6,1.6,0,0,0-.76,1.72,11.46,11.46,0,0,1-.13,10.16,3,3,0,0,0,0,1,29,29,0,0,0,1.41,10.58h0Z" transform="translate(0.02 0.01)"/><path class="cls-1" d="M97,265.08c3.06,3.77,3,3.73.81,7.53-3.88,6.77-9.71,9.84-17.44,10.49-5,.42-9.4-0.33-13.45-3.21a6.11,6.11,0,0,1-1.9-1.56c-2.73-4.81-7-8.4-10.07-12.92a15.75,15.75,0,0,1-2.85-8.34,65.27,65.27,0,0,1,1.55-17.72A41.15,41.15,0,0,0,54.94,228c-0.42-7.65,6.93-12.37,12.51-13.09,5.89-.76,11.53.84,16.86,3.21a6.14,6.14,0,0,1,3.85,5.38c1,12.42-5,22.58-16.47,27.2-1.8.72-1.86,1.68-1.53,3,1.63,6.72,5.16,12.51,9.22,18,2,2.66,3.63,2.74,6.43.87a7.84,7.84,0,0,0,1.79-1.71C91.13,266.3,91.11,266.29,97,265.08ZM68,240.14c3.68-2.47,3.82-2.63,5-5.46a6.71,6.71,0,0,0-2.25-8.33c-1.35-1-2.72-.42-2.77,1.27,0,3.95.08,7.91,0.08,12.52H68Z" transform="translate(0.02 0.01)"/><path class="cls-1" d="M161.56,245.32c-2-1.93-4.82-1.27-7.06-2.39-2.51-1.26-3.29-3.33-1.53-5.45a9.5,9.5,0,0,1,6.82-3.66c1.28-.09,1.86-0.67,1.63-2.34-0.67-4.93-.38-9.92-0.3-14.82l4.17-2.18c6.83,0.78,6.65,6.19,7.55,10.81a20.48,20.48,0,0,1,0,3.88c2,0.46,3.13-.72,4.33-1.37,2.4-1.3,4.89-.89,7.33-0.71,2.06,0.15,2.87,2.9,1.4,4.47-2,2.18-4.14,4.3-7.06,5.39a6.75,6.75,0,0,0-3.58,2.26,183.27,183.27,0,0,1,3.53,18.59,22.19,22.19,0,0,1,.1,3.49v11c0,4.09.52,4.35,4.53,5.94,2.54,1,5.27.28,7.77,1.5,1.37,0.67,2.3-1,3.41-1.65,2.18-1.26,4.28-1.58,6.54-.12,2.58,1.67,3.3,4.26,1.37,6.68-2.07,2.61-4.51,5-8.08,5.21a9.31,9.31,0,0,0-4.55,1.78c-7.43,4.89-15,4.4-22.58.46a4.62,4.62,0,0,1-2.21-1.92C163,286,160.94,282,161,277c0.19-8.82,0-17.64.07-26.47A16.3,16.3,0,0,1,161.56,245.32Z" transform="translate(0.02 0.01)"/><path class="cls-1" d="M60.18,140v16.52c2.54,0.64,5,.26,7.47.33a19.15,19.15,0,0,1,5.84,1c4.49,1.56,4.2,4.51,1.27,7.5a6.71,6.71,0,0,1-3.93,2c-3.49.22-6.79,2.52-10.43,0.57-1,3.4-.14,6.29.63,9.13,1.17,4.3,2.43,8.57,4.93,12.37A7.07,7.07,0,0,0,72,193c5,0.15,9.92.1,14.57-2.26,2.58-1.3,5.37-.64,6.21,1,1,1.91,0,5.3-2.07,6.6-3.26,2-6.7,3.64-10.68,3.62-7.33,0-14.66-.09-22,0-3.17,0-5.4-1.25-6.7-4.16a35.68,35.68,0,0,1-2.44-8.5c-1.39-7.94-.14-16-1.11-23.85-1.13-9.14-.75-18.24-0.78-27.36,0-6.39,4.36-10.86,10.76-11.14,3.49-.15,7-0.08,10.49,0a7.5,7.5,0,0,1,6.41,3.25c2,2.88.11,9.72-3,11.37-1.28.67-2.76,0.66-3.49-.61-1.07-1.87-2.22-2.07-4.09-1.26C63.11,140.1,61.83,139.9,60.18,140Z" transform="translate(0.02 0.01)"/><path class="cls-1" d="M286,334.63c0.19-5-.41-9.92,1-14.84,1.44-5.18,3.75-6.06,8.7-3.85,7.36,3.29,9,9.78,10.32,16.65,1.16,6.23.63,12.57,1.12,18.84a212.92,212.92,0,0,0,3.36,25.47c0.94,4.67,2.49,9.24,2.58,14.06,0.08,4.23-1.06,5.63-5.11,6.55a2,2,0,0,1-1.37,0c-1.68-1.74-3.89-1.47-6-1.89a5.6,5.6,0,0,1-4.3-4.38c-2.63-10-6.5-19.73-8-30-0.58-4.06-1-8.19-1.54-12.26C286.18,344.19,286.17,339.42,286,334.63Z" transform="translate(0.02 0.01)"/><path class="cls-1" d="M183.4,328.72a3.78,3.78,0,0,0,.22-1.21c-1.58-6.38-.87-7.13,5.5-10a13.81,13.81,0,0,1,5.21-1.5c2.49,0,3.87-1.22,4.22-3.39,0.45-2.85,2.7-3.1,4.68-3.53,2.19-.47,3.09,1.64,4.33,2.87,1,1,.18,2.11-0.15,3.23-0.65,2.19.06,3.07,2,2.42,3.77-1.24,7.6-.38,11.39-0.64,2.42-.16,3.87,1.73,5.53,3,1.2,0.89.9,3-.35,4.52-1.79,2.12-4,3.59-6.9,3.39-3.37-.24-6.51,1.21-9.86,1.08-1.3,0-1.74.71-1.68,2.31,0.33,8.61,1.25,17.19,1.68,25.8,0.36,7.29.29,14.61,1,21.85,0.51,5,.46,9.93.74,14.88,0.19,3.38-1.52,5.21-4.42,6.33a3.79,3.79,0,0,1-4.63-2,38.59,38.59,0,0,1-3.09-15.38,210.57,210.57,0,0,0-1.12-21.33c-0.91-8.82-.48-17.58-0.8-26.36v-2.5c0-1.82-.92-2.73-2.81-2.67s-3.67,0-5.5,0S185.49,329,183.4,328.72Z" transform="translate(0.02 0.01)"/><path class="cls-1" d="M160,327.16c0-1.56-.06-4.39,0-7.22a4.93,4.93,0,0,1,6.07-4.47c1.9,0.56,3.76,1.15,5.72,1.54,3.42,0.68,5,2.74,5.17,6.37a46.12,46.12,0,0,1,0,6c-0.55,7.84.67,15.59,1.18,23.36,0.46,6.91,1.39,13.81,1.88,20.74a37.6,37.6,0,0,0,1.16,7.31c1,3.49.5,6.93,0.91,10.37a5.14,5.14,0,0,1-3.24,5.51,3.55,3.55,0,0,1-5-1.91c-0.27-.67-0.9-0.59-1.62-0.63-5.06-.24-6.17-1.13-7.28-5.87a85.36,85.36,0,0,1-1.76-9.22c-0.54-4.44-.64-8.92-1.18-13.36-0.94-7.77-.62-15.6-1.28-23.35C160.42,337.68,160.17,333.07,160,327.16Z" transform="translate(0.02 0.01)"/><path class="cls-1" d="M258.51,132.82A52,52,0,0,1,264,121.94c1.42-2.17,3.58-2.94,5.69-3.75,1.9-.73,5,0.9,5.8,2.67a3.75,3.75,0,0,1-1.58,5.06h0c-4.57,2.84-5.36,7.53-5.72,12.05a137.52,137.52,0,0,0,0,18.45,58,58,0,0,0,2,11.65,37.7,37.7,0,0,1,.83,9.85c0,3.83-.17,7.66,0,11.48a2.82,2.82,0,0,1-2.36,3.21h0c-2.76.55-5.53,0.69-8.24-.67a6.78,6.78,0,0,1-4.19-6.23c-0.16-6.3-2.16-12.31-2.85-18.52-1.43-12.92-6.41-24.82-10.57-37-1.44-4.21-.66-6.27,3.32-7.83,2.43-1,4.27.1,5.72,1.77C254,126.83,256,129.64,258.51,132.82Z" transform="translate(0.02 0.01)"/><path class="cls-1" d="M156,131.44c-2.14.45-4,.17-4.78-1.65a3.92,3.92,0,0,1,1.85-5.18c2-1.05,2.22-2.62,2.08-4.56a23.26,23.26,0,0,1,0-4.49c0.4-3.16,3.4-4.7,5.68-2.52,2.46,2.34,6.11,1.28,8.33,3.75a2.36,2.36,0,0,0,1.92-.06c3.22-1.3,6.58-.54,9.87-0.78a4.63,4.63,0,0,1,5,2.88,7.29,7.29,0,0,1-7.13,4.1,12.6,12.6,0,0,0-6.72,1.35,5.34,5.34,0,0,0-3.12,4.65v2.5c0,15.49,0,31,.09,46.47,0,1.76-.71,3.76.89,5.21,1.77,1.62,4.17,1.92,6.33,2.69,0.85,0.31,1.54-.37,2.25-0.81a37.9,37.9,0,0,0,6.82-5.79,13.19,13.19,0,0,1,4-3,3.67,3.67,0,0,1,4.53.92,3.73,3.73,0,0,1,.71,4.57,9.78,9.78,0,0,1-.9,1.2,32.57,32.57,0,0,1-12.28,10.62c-6.24,3-13.43,2.32-18.27-5-3-4.57-4-9.72-5-14.88-1.37-6.89-.51-13.92-1.18-20.82S156.19,138.92,156,131.44Z" transform="translate(0.02 0.01)"/><path class="cls-1" d="M49,48.65c-1.09-.62-2.48.2-3.5-0.75" transform="translate(0.02 0.01)"/><path class="cls-1" d="M171.53,388.4v6" transform="translate(0.02 0.01)"/><path class="cls-1" d="M304.78,117.4l0.25,3.5" transform="translate(0.02 0.01)"/><path class="cls-1" d="M213.78,119.4l0.25,3.5" transform="translate(0.02 0.01)"/><path class="cls-1" d="M7,19.9l-3.5-.25" transform="translate(0.02 0.01)"/><path class="cls-1" d="M124.53,380.9l3-.25" transform="translate(0.02 0.01)"/><path class="cls-1" d="M6.53,7.9l-3-.25" transform="translate(0.02 0.01)"/><path class="cls-1" d="M190.78,178.4c0.38,0.69.23,2.14,1.75,1.25" transform="translate(0.02 0.01)"/><path class="cls-1" d="M21.83,427v2.53H14.65v19.69h-3V429.54H4.43V427h17.4Z" transform="translate(0.02 0.01)"/><path class="cls-1" d="M24.56,449.23V426.39h2.76v9.24a8.47,8.47,0,0,1,2.23-1.71,6,6,0,0,1,2.82-.64,5.68,5.68,0,0,1,2.27.43,4.41,4.41,0,0,1,1.64,1.21,5.36,5.36,0,0,1,1,1.88,8.23,8.23,0,0,1,.34,2.43v10H34.87v-10a4.23,4.23,0,0,0-.81-2.77,3,3,0,0,0-2.49-1,4.64,4.64,0,0,0-2.29.59,7.53,7.53,0,0,0-2,1.6v11.57H24.56Z" transform="translate(0.02 0.01)"/><path class="cls-1" d="M48,433.27a7,7,0,0,1,2.61.47,5.86,5.86,0,0,1,2.06,1.36,6.24,6.24,0,0,1,1.36,2.2,8.52,8.52,0,0,1,.49,3,1.81,1.81,0,0,1-.14.87,0.58,0.58,0,0,1-.53.22H43.41a8.69,8.69,0,0,0,.4,2.59,5.3,5.3,0,0,0,1,1.84,4.09,4.09,0,0,0,1.55,1.1,5.32,5.32,0,0,0,2,.36,5.89,5.89,0,0,0,1.79-.24,8.51,8.51,0,0,0,1.29-.52A9.65,9.65,0,0,0,52.4,446a1.21,1.21,0,0,1,.63-0.24,0.61,0.61,0,0,1,.53.26l0.78,1a5.22,5.22,0,0,1-1.22,1.08,7.63,7.63,0,0,1-1.53.75,9.67,9.67,0,0,1-1.68.44,10.23,10.23,0,0,1-1.72.15,8,8,0,0,1-3-.55,6.58,6.58,0,0,1-2.37-1.61,7.41,7.41,0,0,1-1.56-2.63,10.66,10.66,0,0,1-.56-3.6,9.15,9.15,0,0,1,.5-3.07,7.24,7.24,0,0,1,1.45-2.47,6.68,6.68,0,0,1,2.31-1.64A7.6,7.6,0,0,1,48,433.27Zm0.06,2a4.24,4.24,0,0,0-3.15,1.16,5.43,5.43,0,0,0-1.43,3.2H52a5.59,5.59,0,0,0-.26-1.76,3.93,3.93,0,0,0-.77-1.38,3.48,3.48,0,0,0-1.25-.9A4.21,4.21,0,0,0,48.08,435.31Z" transform="translate(0.02 0.01)"/><path class="cls-1" d="M78.16,427v2.45H67.49v7.38h8.64v2.36H67.49v7.58H78.16v2.45H64.47V427H78.16Z" transform="translate(0.02 0.01)"/><path class="cls-1" d="M85.12,426.39v22.84H82.36V426.39h2.76Z" transform="translate(0.02 0.01)"/><path class="cls-1" d="M96.21,433.27a7,7,0,0,1,2.61.47,5.86,5.86,0,0,1,2.06,1.36,6.24,6.24,0,0,1,1.36,2.2,8.52,8.52,0,0,1,.49,3,1.81,1.81,0,0,1-.14.87,0.58,0.58,0,0,1-.53.22H91.6A8.69,8.69,0,0,0,92,444a5.3,5.3,0,0,0,1,1.84,4.09,4.09,0,0,0,1.55,1.1,5.32,5.32,0,0,0,2,.36,5.89,5.89,0,0,0,1.79-.24,8.51,8.51,0,0,0,1.29-.52,9.65,9.65,0,0,0,.91-0.52,1.21,1.21,0,0,1,.63-0.24,0.61,0.61,0,0,1,.53.26l0.78,1a5.22,5.22,0,0,1-1.22,1.08,7.63,7.63,0,0,1-1.53.75,9.67,9.67,0,0,1-1.68.44,10.23,10.23,0,0,1-1.72.15,8,8,0,0,1-3-.55A6.58,6.58,0,0,1,91,447.28a7.41,7.41,0,0,1-1.56-2.63,10.66,10.66,0,0,1-.56-3.6,9.15,9.15,0,0,1,.5-3.07,7.24,7.24,0,0,1,1.45-2.47,6.68,6.68,0,0,1,2.31-1.64A7.6,7.6,0,0,1,96.21,433.27Zm0.06,2a4.24,4.24,0,0,0-3.15,1.16,5.43,5.43,0,0,0-1.43,3.2h8.54a5.59,5.59,0,0,0-.26-1.76,3.93,3.93,0,0,0-.77-1.38,3.48,3.48,0,0,0-1.25-.9A4.21,4.21,0,0,0,96.27,435.31Z" transform="translate(0.02 0.01)"/><path class="cls-1" d="M103.85,433.52h2.26a0.85,0.85,0,0,1,.54.17,1,1,0,0,1,.31.4l4,10.11a7.73,7.73,0,0,1,.34,1.12q0.12,0.56.23,1.1,0.12-.54.26-1.1a9.29,9.29,0,0,1,.36-1.12l4-10.11a0.91,0.91,0,0,1,.3-0.41,0.82,0.82,0,0,1,.52-0.16h2.16l-6.4,15.71h-2.5Z" transform="translate(0.02 0.01)"/><path class="cls-1" d="M133.25,449.23H132a1.46,1.46,0,0,1-.65-0.12,0.68,0.68,0,0,1-.33-0.53l-0.31-1.46q-0.62.56-1.21,1a7,7,0,0,1-1.24.74,6.39,6.39,0,0,1-1.39.46,8,8,0,0,1-1.64.16,5.57,5.57,0,0,1-1.71-.26,3.9,3.9,0,0,1-1.39-.77,3.66,3.66,0,0,1-.94-1.3,4.56,4.56,0,0,1-.35-1.86,3.47,3.47,0,0,1,.51-1.8A4.51,4.51,0,0,1,123,442a10.75,10.75,0,0,1,3-1.1,20.32,20.32,0,0,1,4.51-.43v-1.23a4.28,4.28,0,0,0-.78-2.79,2.84,2.84,0,0,0-2.32-.94,4.93,4.93,0,0,0-1.7.26,6.44,6.44,0,0,0-1.19.57q-0.5.32-.87,0.57a1.25,1.25,0,0,1-.72.26,0.83,0.83,0,0,1-.49-0.15,1.11,1.11,0,0,1-.33-0.37l-0.5-.88a9,9,0,0,1,2.81-1.88,8.67,8.67,0,0,1,3.33-.62,5.94,5.94,0,0,1,2.34.43,4.79,4.79,0,0,1,1.72,1.21,5.13,5.13,0,0,1,1.05,1.88,7.83,7.83,0,0,1,.36,2.42v10Zm-7.16-1.69a5.61,5.61,0,0,0,1.33-.15,5.24,5.24,0,0,0,1.14-.42,6,6,0,0,0,1-.66,8.77,8.77,0,0,0,1-.88v-3.24a18.52,18.52,0,0,0-3.24.24,9.07,9.07,0,0,0-2.17.63,3,3,0,0,0-1.22.92,2,2,0,0,0-.38,1.19,2.64,2.64,0,0,0,.2,1.08,2,2,0,0,0,.54.74,2.15,2.15,0,0,0,.81.42A3.68,3.68,0,0,0,126.08,447.54Z" transform="translate(0.02 0.01)"/><path class="cls-1" d="M137.43,449.23V433.52H139a0.87,0.87,0,0,1,.62.17,1,1,0,0,1,.23.59l0.19,2.45a7.19,7.19,0,0,1,2-2.57,4.69,4.69,0,0,1,4-.78,4.14,4.14,0,0,1,1,.41l-0.36,2.06a0.47,0.47,0,0,1-.48.39,2.4,2.4,0,0,1-.67-0.15,4.23,4.23,0,0,0-1.26-.15,3.55,3.55,0,0,0-2.41.84,6.29,6.29,0,0,0-1.62,2.43v10h-2.76Z" transform="translate(0.02 0.01)"/><path class="cls-1" d="M167.66,442l0.32,0.83q0.16-.44.33-0.83t0.39-.8l7.52-13.66a0.89,0.89,0,0,1,.42-0.43,1.92,1.92,0,0,1,.62-0.08h2.22v22.22h-2.64V432.9q0-.33,0-0.7c0-.25,0-0.5,0-0.76l-7.61,13.89a1.2,1.2,0,0,1-1.09.7h-0.43a1.2,1.2,0,0,1-1.09-.7l-7.78-13.94q0,0.4.07,0.79c0,0.26,0,.5,0,0.71v16.33h-2.64V427h2.22a1.92,1.92,0,0,1,.62.08,0.9,0.9,0,0,1,.42.43l7.68,13.68A5.92,5.92,0,0,1,167.66,442Z" transform="translate(0.02 0.01)"/><path class="cls-1" d="M190.66,433.27a7,7,0,0,1,2.61.47,5.86,5.86,0,0,1,2.06,1.36,6.24,6.24,0,0,1,1.36,2.2,8.52,8.52,0,0,1,.49,3,1.81,1.81,0,0,1-.14.87,0.58,0.58,0,0,1-.53.22H186.06a8.69,8.69,0,0,0,.4,2.59,5.3,5.3,0,0,0,1,1.84,4.09,4.09,0,0,0,1.55,1.1,5.32,5.32,0,0,0,2,.36,5.89,5.89,0,0,0,1.79-.24,8.51,8.51,0,0,0,1.29-.52A9.65,9.65,0,0,0,195,446a1.21,1.21,0,0,1,.63-0.24,0.61,0.61,0,0,1,.53.26l0.78,1a5.22,5.22,0,0,1-1.22,1.08,7.63,7.63,0,0,1-1.53.75,9.67,9.67,0,0,1-1.68.44,10.23,10.23,0,0,1-1.72.15,8,8,0,0,1-3-.55,6.58,6.58,0,0,1-2.37-1.61,7.41,7.41,0,0,1-1.56-2.63,10.66,10.66,0,0,1-.56-3.6,9.15,9.15,0,0,1,.5-3.07,7.24,7.24,0,0,1,1.45-2.47,6.68,6.68,0,0,1,2.31-1.64A7.6,7.6,0,0,1,190.66,433.27Zm0.06,2a4.24,4.24,0,0,0-3.15,1.16,5.43,5.43,0,0,0-1.43,3.2h8.54a5.59,5.59,0,0,0-.26-1.76,3.93,3.93,0,0,0-.77-1.38,3.48,3.48,0,0,0-1.25-.9A4.21,4.21,0,0,0,190.73,435.31Z" transform="translate(0.02 0.01)"/><path class="cls-1" d="M205.46,449.48a3.78,3.78,0,0,1-2.86-1,4.14,4.14,0,0,1-1-3v-9.61H199.7a0.62,0.62,0,0,1-.42-0.15,0.58,0.58,0,0,1-.17-0.46v-1.1l2.57-.33,0.64-4.85a0.58,0.58,0,0,1,.2-0.38,0.64,0.64,0,0,1,.43-0.15h1.4v5.41h4.5v2h-4.5v9.43a2,2,0,0,0,.48,1.47,1.68,1.68,0,0,0,1.24.48,2.2,2.2,0,0,0,.75-0.12,3.26,3.26,0,0,0,.55-0.26l0.4-.26a0.51,0.51,0,0,1,.29-0.12,0.48,0.48,0,0,1,.39.26l0.81,1.32a5.13,5.13,0,0,1-1.72,1A5.85,5.85,0,0,1,205.46,449.48Z" transform="translate(0.02 0.01)"/><path class="cls-1" d="M212.26,449.23V426.39H215v9.24a8.47,8.47,0,0,1,2.23-1.71,6,6,0,0,1,2.82-.64,5.68,5.68,0,0,1,2.27.43,4.41,4.41,0,0,1,1.64,1.21,5.36,5.36,0,0,1,1,1.88,8.23,8.23,0,0,1,.34,2.43v10h-2.76v-10a4.23,4.23,0,0,0-.81-2.77,3,3,0,0,0-2.49-1,4.64,4.64,0,0,0-2.29.59,7.53,7.53,0,0,0-2,1.6v11.57h-2.76Z" transform="translate(0.02 0.01)"/><path class="cls-1" d="M235.86,433.27a8.08,8.08,0,0,1,3.11.57,6.57,6.57,0,0,1,2.36,1.63,7.23,7.23,0,0,1,1.49,2.55,11,11,0,0,1,0,6.69,7.24,7.24,0,0,1-1.49,2.54,6.49,6.49,0,0,1-2.36,1.62,8.83,8.83,0,0,1-6.22,0,6.56,6.56,0,0,1-2.37-1.62,7.25,7.25,0,0,1-1.5-2.54,10.88,10.88,0,0,1,0-6.69,7.24,7.24,0,0,1,1.5-2.55,6.64,6.64,0,0,1,2.37-1.63A8.08,8.08,0,0,1,235.86,433.27Zm0,14a4,4,0,0,0,3.47-1.56,8.86,8.86,0,0,0,0-8.72,4,4,0,0,0-3.47-1.57,4.81,4.81,0,0,0-2,.4,3.83,3.83,0,0,0-1.45,1.16,5.17,5.17,0,0,0-.87,1.87,11.06,11.06,0,0,0,0,5,5.1,5.1,0,0,0,.87,1.85,3.86,3.86,0,0,0,1.45,1.15A4.81,4.81,0,0,0,235.86,447.29Z" transform="translate(0.02 0.01)"/><path class="cls-1" d="M257.8,449.23a0.7,0.7,0,0,1-.74-0.57l-0.25-1.91a8.27,8.27,0,0,1-2.3,2,5.9,5.9,0,0,1-3,.74,5.66,5.66,0,0,1-2.45-.52,5.07,5.07,0,0,1-1.88-1.53,7.28,7.28,0,0,1-1.19-2.51,12.92,12.92,0,0,1-.42-3.46,10.83,10.83,0,0,1,.47-3.23,7.88,7.88,0,0,1,1.34-2.6,6.15,6.15,0,0,1,5-2.36,5.69,5.69,0,0,1,2.46.49,5.93,5.93,0,0,1,1.83,1.37v-8.71h2.76v22.84H257.8Zm-5.35-2a4.45,4.45,0,0,0,2.37-.62,6.82,6.82,0,0,0,1.87-1.75v-7.6a4.36,4.36,0,0,0-1.67-1.43,4.8,4.8,0,0,0-2-.41,4,4,0,0,0-3.38,1.57,7.32,7.32,0,0,0-1.18,4.46,11.36,11.36,0,0,0,.26,2.63,5,5,0,0,0,.78,1.8,3,3,0,0,0,1.26,1A4.2,4.2,0,0,0,252.45,447.21Z" transform="translate(0.02 0.01)"/><text x="0.02" y="0.01"/></svg>